<svg width="1000" height="359" viewBox="0 0 1000 359" fill="none" xmlns="http://www.w3.org/2000/svg">
<rect width="1000" height="359" rx="20" fill="white"/>
<path d="M817.429 58.177V62.027C816.925 62.391 816.386 62.664 815.812 62.846C815.243 63.0233 814.617 63.112 813.936 63.112C813.129 63.112 812.401 62.9883 811.752 62.741C811.103 62.489 810.548 62.139 810.086 61.691C809.629 61.2383 809.276 60.697 809.029 60.067C808.782 59.437 808.658 58.744 808.658 57.988C808.658 57.2227 808.777 56.525 809.015 55.895C809.258 55.265 809.601 54.726 810.044 54.278C810.487 53.8253 811.026 53.4753 811.661 53.228C812.296 52.9807 813.005 52.857 813.789 52.857C814.186 52.857 814.554 52.8873 814.895 52.948C815.236 53.004 815.551 53.088 815.84 53.2C816.129 53.3073 816.398 53.4403 816.645 53.599C816.892 53.753 817.123 53.928 817.338 54.124L816.953 54.74C816.892 54.8333 816.813 54.894 816.715 54.922C816.622 54.9453 816.517 54.922 816.4 54.852C816.288 54.7867 816.16 54.7073 816.015 54.614C815.87 54.5207 815.693 54.432 815.483 54.348C815.278 54.2593 815.033 54.1847 814.748 54.124C814.468 54.0633 814.134 54.033 813.747 54.033C813.182 54.033 812.671 54.1263 812.214 54.313C811.757 54.495 811.367 54.7587 811.045 55.104C810.723 55.4447 810.476 55.86 810.303 56.35C810.13 56.8353 810.044 57.3813 810.044 57.988C810.044 58.618 810.133 59.1827 810.31 59.682C810.492 60.1767 810.749 60.599 811.08 60.949C811.416 61.2943 811.822 61.558 812.298 61.74C812.774 61.922 813.308 62.013 813.901 62.013C814.368 62.013 814.781 61.9617 815.14 61.859C815.504 61.7517 815.859 61.6047 816.204 61.418V59.213H814.643C814.554 59.213 814.482 59.1873 814.426 59.136C814.375 59.0847 814.349 59.0217 814.349 58.947V58.177H817.429ZM824.922 55.909V63H824.18C824.002 63 823.89 62.9137 823.844 62.741L823.746 61.978C823.438 62.3187 823.092 62.594 822.71 62.804C822.327 63.0093 821.888 63.112 821.394 63.112C821.006 63.112 820.663 63.049 820.365 62.923C820.071 62.7923 819.823 62.6103 819.623 62.377C819.422 62.1437 819.27 61.8613 819.168 61.53C819.07 61.1987 819.021 60.8323 819.021 60.431V55.909H820.267V60.431C820.267 60.9677 820.388 61.383 820.631 61.677C820.878 61.971 821.254 62.118 821.758 62.118C822.126 62.118 822.469 62.0317 822.787 61.859C823.109 61.6817 823.405 61.439 823.676 61.131V55.909H824.922ZM831.643 58.681C831.643 58.3917 831.601 58.128 831.517 57.89C831.438 57.6473 831.319 57.4397 831.16 57.267C831.006 57.0897 830.817 56.9543 830.593 56.861C830.369 56.763 830.115 56.714 829.83 56.714C829.233 56.714 828.759 56.889 828.409 57.239C828.064 57.5843 827.849 58.065 827.765 58.681H831.643ZM832.651 62.006C832.497 62.1927 832.313 62.356 832.098 62.496C831.883 62.6313 831.652 62.7433 831.405 62.832C831.162 62.9207 830.91 62.986 830.649 63.028C830.388 63.0747 830.129 63.098 829.872 63.098C829.382 63.098 828.929 63.0163 828.514 62.853C828.103 62.685 827.746 62.4423 827.443 62.125C827.144 61.803 826.911 61.4063 826.743 60.935C826.575 60.4637 826.491 59.9223 826.491 59.311C826.491 58.8163 826.566 58.3543 826.715 57.925C826.869 57.4957 827.088 57.1247 827.373 56.812C827.658 56.4947 828.005 56.2473 828.416 56.07C828.827 55.888 829.289 55.797 829.802 55.797C830.227 55.797 830.619 55.8693 830.978 56.014C831.342 56.154 831.655 56.3593 831.916 56.63C832.182 56.896 832.39 57.2273 832.539 57.624C832.688 58.016 832.763 58.464 832.763 58.968C832.763 59.164 832.742 59.2947 832.7 59.36C832.658 59.4253 832.579 59.458 832.462 59.458H827.723C827.737 59.906 827.798 60.2957 827.905 60.627C828.017 60.9583 828.171 61.236 828.367 61.46C828.563 61.6793 828.796 61.845 829.067 61.957C829.338 62.0643 829.641 62.118 829.977 62.118C830.29 62.118 830.558 62.083 830.782 62.013C831.011 61.9383 831.207 61.859 831.37 61.775C831.533 61.691 831.669 61.614 831.776 61.544C831.888 61.4693 831.984 61.432 832.063 61.432C832.166 61.432 832.245 61.4717 832.301 61.551L832.651 62.006ZM838.424 57.078C838.368 57.1807 838.281 57.232 838.165 57.232C838.095 57.232 838.015 57.2063 837.927 57.155C837.838 57.1037 837.728 57.0477 837.598 56.987C837.472 56.9217 837.32 56.8633 837.143 56.812C836.965 56.756 836.755 56.728 836.513 56.728C836.303 56.728 836.114 56.756 835.946 56.812C835.778 56.8633 835.633 56.9357 835.512 57.029C835.395 57.1223 835.304 57.232 835.239 57.358C835.178 57.4793 835.148 57.6123 835.148 57.757C835.148 57.939 835.199 58.0907 835.302 58.212C835.409 58.3333 835.549 58.4383 835.722 58.527C835.894 58.6157 836.09 58.695 836.31 58.765C836.529 58.8303 836.753 58.9027 836.982 58.982C837.215 59.0567 837.441 59.1407 837.661 59.234C837.88 59.3273 838.076 59.444 838.249 59.584C838.421 59.724 838.559 59.8967 838.662 60.102C838.769 60.3027 838.823 60.5453 838.823 60.83C838.823 61.1567 838.764 61.46 838.648 61.74C838.531 62.0153 838.358 62.2557 838.13 62.461C837.901 62.6617 837.621 62.8203 837.29 62.937C836.958 63.0537 836.576 63.112 836.142 63.112C835.647 63.112 835.199 63.0327 834.798 62.874C834.396 62.7107 834.056 62.503 833.776 62.251L834.07 61.775C834.107 61.7143 834.151 61.6677 834.203 61.635C834.254 61.6023 834.319 61.586 834.399 61.586C834.483 61.586 834.571 61.6187 834.665 61.684C834.758 61.7493 834.87 61.8217 835.001 61.901C835.136 61.9803 835.299 62.0527 835.491 62.118C835.682 62.1833 835.92 62.216 836.205 62.216C836.447 62.216 836.66 62.1857 836.842 62.125C837.024 62.0597 837.175 61.9733 837.297 61.866C837.418 61.7587 837.507 61.635 837.563 61.495C837.623 61.355 837.654 61.2057 837.654 61.047C837.654 60.851 837.6 60.69 837.493 60.564C837.39 60.4333 837.252 60.3237 837.08 60.235C836.907 60.1417 836.709 60.0623 836.485 59.997C836.265 59.927 836.039 59.8547 835.806 59.78C835.577 59.7053 835.351 59.6213 835.127 59.528C834.907 59.43 834.711 59.3087 834.539 59.164C834.366 59.0193 834.226 58.842 834.119 58.632C834.016 58.4173 833.965 58.1583 833.965 57.855C833.965 57.5843 834.021 57.3253 834.133 57.078C834.245 56.826 834.408 56.6067 834.623 56.42C834.837 56.2287 835.101 56.077 835.414 55.965C835.726 55.853 836.083 55.797 836.485 55.797C836.951 55.797 837.369 55.8717 837.738 56.021C838.111 56.1657 838.433 56.3663 838.704 56.623L838.424 57.078ZM842.527 63.112C841.967 63.112 841.536 62.9557 841.232 62.643C840.934 62.3303 840.784 61.88 840.784 61.292V56.952H839.93C839.856 56.952 839.793 56.931 839.741 56.889C839.69 56.8423 839.664 56.7723 839.664 56.679V56.182L840.826 56.035L841.113 53.844C841.127 53.774 841.158 53.718 841.204 53.676C841.256 53.6293 841.321 53.606 841.4 53.606H842.03V56.049H844.081V56.952H842.03V61.208C842.03 61.5067 842.103 61.7283 842.247 61.873C842.392 62.0177 842.579 62.09 842.807 62.09C842.938 62.09 843.05 62.0737 843.143 62.041C843.241 62.0037 843.325 61.964 843.395 61.922C843.465 61.88 843.524 61.8427 843.57 61.81C843.622 61.7727 843.666 61.754 843.703 61.754C843.769 61.754 843.827 61.7937 843.878 61.873L844.242 62.468C844.028 62.6687 843.769 62.8273 843.465 62.944C843.162 63.056 842.849 63.112 842.527 63.112Z" fill="black"/>
<path d="M911.152 61.922C911.567 61.922 911.938 61.852 912.265 61.712C912.592 61.572 912.867 61.376 913.091 61.124C913.32 60.872 913.492 60.571 913.609 60.221C913.73 59.871 913.791 59.486 913.791 59.066V52.969H915.142V59.066C915.142 59.6447 915.049 60.1813 914.862 60.676C914.68 61.1707 914.416 61.6 914.071 61.964C913.73 62.3233 913.313 62.6057 912.818 62.811C912.323 63.0163 911.768 63.119 911.152 63.119C910.536 63.119 909.981 63.0163 909.486 62.811C908.991 62.6057 908.571 62.3233 908.226 61.964C907.881 61.6 907.615 61.1707 907.428 60.676C907.246 60.1813 907.155 59.6447 907.155 59.066V52.969H908.506V59.059C908.506 59.479 908.564 59.864 908.681 60.214C908.802 60.564 908.975 60.865 909.199 61.117C909.428 61.369 909.705 61.5673 910.032 61.712C910.363 61.852 910.737 61.922 911.152 61.922ZM921.07 57.078C921.014 57.1807 920.928 57.232 920.811 57.232C920.741 57.232 920.662 57.2063 920.573 57.155C920.484 57.1037 920.375 57.0477 920.244 56.987C920.118 56.9217 919.966 56.8633 919.789 56.812C919.612 56.756 919.402 56.728 919.159 56.728C918.949 56.728 918.76 56.756 918.592 56.812C918.424 56.8633 918.279 56.9357 918.158 57.029C918.041 57.1223 917.95 57.232 917.885 57.358C917.824 57.4793 917.794 57.6123 917.794 57.757C917.794 57.939 917.845 58.0907 917.948 58.212C918.055 58.3333 918.195 58.4383 918.368 58.527C918.541 58.6157 918.737 58.695 918.956 58.765C919.175 58.8303 919.399 58.9027 919.628 58.982C919.861 59.0567 920.088 59.1407 920.307 59.234C920.526 59.3273 920.722 59.444 920.895 59.584C921.068 59.724 921.205 59.8967 921.308 60.102C921.415 60.3027 921.469 60.5453 921.469 60.83C921.469 61.1567 921.411 61.46 921.294 61.74C921.177 62.0153 921.005 62.2557 920.776 62.461C920.547 62.6617 920.267 62.8203 919.936 62.937C919.605 63.0537 919.222 63.112 918.788 63.112C918.293 63.112 917.845 63.0327 917.444 62.874C917.043 62.7107 916.702 62.503 916.422 62.251L916.716 61.775C916.753 61.7143 916.798 61.6677 916.849 61.635C916.9 61.6023 916.966 61.586 917.045 61.586C917.129 61.586 917.218 61.6187 917.311 61.684C917.404 61.7493 917.516 61.8217 917.647 61.901C917.782 61.9803 917.946 62.0527 918.137 62.118C918.328 62.1833 918.566 62.216 918.851 62.216C919.094 62.216 919.306 62.1857 919.488 62.125C919.67 62.0597 919.822 61.9733 919.943 61.866C920.064 61.7587 920.153 61.635 920.209 61.495C920.27 61.355 920.3 61.2057 920.3 61.047C920.3 60.851 920.246 60.69 920.139 60.564C920.036 60.4333 919.899 60.3237 919.726 60.235C919.553 60.1417 919.355 60.0623 919.131 59.997C918.912 59.927 918.685 59.8547 918.452 59.78C918.223 59.7053 917.997 59.6213 917.773 59.528C917.554 59.43 917.358 59.3087 917.185 59.164C917.012 59.0193 916.872 58.842 916.765 58.632C916.662 58.4173 916.611 58.1583 916.611 57.855C916.611 57.5843 916.667 57.3253 916.779 57.078C916.891 56.826 917.054 56.6067 917.269 56.42C917.484 56.2287 917.747 56.077 918.06 55.965C918.373 55.853 918.73 55.797 919.131 55.797C919.598 55.797 920.015 55.8717 920.384 56.021C920.757 56.1657 921.079 56.3663 921.35 56.623L921.07 57.078ZM927.743 58.681C927.743 58.3917 927.701 58.128 927.617 57.89C927.537 57.6473 927.418 57.4397 927.26 57.267C927.106 57.0897 926.917 56.9543 926.693 56.861C926.469 56.763 926.214 56.714 925.93 56.714C925.332 56.714 924.859 56.889 924.509 57.239C924.163 57.5843 923.949 58.065 923.865 58.681H927.743ZM928.751 62.006C928.597 62.1927 928.412 62.356 928.198 62.496C927.983 62.6313 927.752 62.7433 927.505 62.832C927.262 62.9207 927.01 62.986 926.749 63.028C926.487 63.0747 926.228 63.098 925.972 63.098C925.482 63.098 925.029 63.0163 924.614 62.853C924.203 62.685 923.846 62.4423 923.543 62.125C923.244 61.803 923.011 61.4063 922.843 60.935C922.675 60.4637 922.591 59.9223 922.591 59.311C922.591 58.8163 922.665 58.3543 922.815 57.925C922.969 57.4957 923.188 57.1247 923.473 56.812C923.757 56.4947 924.105 56.2473 924.516 56.07C924.926 55.888 925.388 55.797 925.902 55.797C926.326 55.797 926.718 55.8693 927.078 56.014C927.442 56.154 927.754 56.3593 928.016 56.63C928.282 56.896 928.489 57.2273 928.639 57.624C928.788 58.016 928.863 58.464 928.863 58.968C928.863 59.164 928.842 59.2947 928.8 59.36C928.758 59.4253 928.678 59.458 928.562 59.458H923.823C923.837 59.906 923.897 60.2957 924.005 60.627C924.117 60.9583 924.271 61.236 924.467 61.46C924.663 61.6793 924.896 61.845 925.167 61.957C925.437 62.0643 925.741 62.118 926.077 62.118C926.389 62.118 926.658 62.083 926.882 62.013C927.11 61.9383 927.306 61.859 927.47 61.775C927.633 61.691 927.768 61.614 927.876 61.544C927.988 61.4693 928.083 61.432 928.163 61.432C928.265 61.432 928.345 61.4717 928.401 61.551L928.751 62.006ZM931.576 57.33C931.8 56.8447 932.076 56.4667 932.402 56.196C932.729 55.9207 933.128 55.783 933.599 55.783C933.749 55.783 933.891 55.7993 934.026 55.832C934.166 55.8647 934.29 55.916 934.397 55.986L934.306 56.917C934.278 57.0337 934.208 57.092 934.096 57.092C934.031 57.092 933.935 57.078 933.809 57.05C933.683 57.022 933.541 57.008 933.382 57.008C933.158 57.008 932.958 57.0407 932.78 57.106C932.608 57.1713 932.451 57.2693 932.311 57.4C932.176 57.526 932.052 57.6847 931.94 57.876C931.833 58.0627 931.735 58.2773 931.646 58.52V63H930.393V55.909H931.107C931.243 55.909 931.336 55.9347 931.387 55.986C931.439 56.0373 931.474 56.126 931.492 56.252L931.576 57.33Z" fill="black"/>
<path d="M49.792 44.3H43.942L42.826 47H39.838L45.454 34.4H48.334L53.968 47H50.908L49.792 44.3ZM48.874 42.086L46.876 37.262L44.878 42.086H48.874ZM59.6694 47.144C58.6374 47.144 57.7074 46.934 56.8794 46.514C56.0634 46.082 55.4214 45.488 54.9534 44.732C54.4974 43.976 54.2694 43.118 54.2694 42.158C54.2694 41.198 54.4974 40.34 54.9534 39.584C55.4214 38.828 56.0634 38.24 56.8794 37.82C57.7074 37.388 58.6374 37.172 59.6694 37.172C60.6894 37.172 61.5774 37.388 62.3334 37.82C63.1014 38.24 63.6594 38.846 64.0074 39.638L61.8294 40.808C61.3254 39.92 60.5994 39.476 59.6514 39.476C58.9194 39.476 58.3134 39.716 57.8334 40.196C57.3534 40.676 57.1134 41.33 57.1134 42.158C57.1134 42.986 57.3534 43.64 57.8334 44.12C58.3134 44.6 58.9194 44.84 59.6514 44.84C60.6114 44.84 61.3374 44.396 61.8294 43.508L64.0074 44.696C63.6594 45.464 63.1014 46.064 62.3334 46.496C61.5774 46.928 60.6894 47.144 59.6694 47.144ZM72.0108 46.532C71.7348 46.736 71.3928 46.892 70.9848 47C70.5888 47.096 70.1688 47.144 69.7248 47.144C68.5728 47.144 67.6788 46.85 67.0428 46.262C66.4188 45.674 66.1068 44.81 66.1068 43.67V39.692H64.6128V37.532H66.1068V35.174H68.9148V37.532H71.3268V39.692H68.9148V43.634C68.9148 44.042 69.0168 44.36 69.2207 44.588C69.4368 44.804 69.7368 44.912 70.1208 44.912C70.5648 44.912 70.9428 44.792 71.2548 44.552L72.0108 46.532ZM73.587 37.316H76.395V47H73.587V37.316ZM74.991 35.966C74.475 35.966 74.055 35.816 73.731 35.516C73.407 35.216 73.245 34.844 73.245 34.4C73.245 33.956 73.407 33.584 73.731 33.284C74.055 32.984 74.475 32.834 74.991 32.834C75.507 32.834 75.927 32.978 76.251 33.266C76.575 33.554 76.737 33.914 76.737 34.346C76.737 34.814 76.575 35.204 76.251 35.516C75.927 35.816 75.507 35.966 74.991 35.966ZM88.6131 37.316L84.5271 47H81.6291L77.5611 37.316H80.4591L83.1411 43.904L85.9131 37.316H88.6131ZM89.7589 37.316H92.5669V47H89.7589V37.316ZM91.1629 35.966C90.6469 35.966 90.2269 35.816 89.9029 35.516C89.5789 35.216 89.4169 34.844 89.4169 34.4C89.4169 33.956 89.5789 33.584 89.9029 33.284C90.2269 32.984 90.6469 32.834 91.1629 32.834C91.6789 32.834 92.0989 32.978 92.4229 33.266C92.7469 33.554 92.9089 33.914 92.9089 34.346C92.9089 34.814 92.7469 35.204 92.4229 35.516C92.0989 35.816 91.6789 35.966 91.1629 35.966ZM101.419 46.532C101.143 46.736 100.801 46.892 100.393 47C99.997 47.096 99.577 47.144 99.133 47.144C97.981 47.144 97.087 46.85 96.451 46.262C95.827 45.674 95.515 44.81 95.515 43.67V39.692H94.021V37.532H95.515V35.174H98.323V37.532H100.735V39.692H98.323V43.634C98.323 44.042 98.425 44.36 98.629 44.588C98.845 44.804 99.145 44.912 99.529 44.912C99.973 44.912 100.351 44.792 100.663 44.552L101.419 46.532ZM102.995 37.316H105.803V47H102.995V37.316ZM104.399 35.966C103.883 35.966 103.463 35.816 103.139 35.516C102.815 35.216 102.653 34.844 102.653 34.4C102.653 33.956 102.815 33.584 103.139 33.284C103.463 32.984 103.883 32.834 104.399 32.834C104.915 32.834 105.335 32.978 105.659 33.266C105.983 33.554 106.145 33.914 106.145 34.346C106.145 34.814 105.983 35.204 105.659 35.516C105.335 35.816 104.915 35.966 104.399 35.966ZM117.895 42.194C117.895 42.23 117.877 42.482 117.841 42.95H110.515C110.647 43.55 110.959 44.024 111.451 44.372C111.943 44.72 112.555 44.894 113.287 44.894C113.791 44.894 114.235 44.822 114.619 44.678C115.015 44.522 115.381 44.282 115.717 43.958L117.211 45.578C116.299 46.622 114.967 47.144 113.215 47.144C112.123 47.144 111.157 46.934 110.317 46.514C109.477 46.082 108.829 45.488 108.373 44.732C107.917 43.976 107.689 43.118 107.689 42.158C107.689 41.21 107.911 40.358 108.355 39.602C108.811 38.834 109.429 38.24 110.209 37.82C111.001 37.388 111.883 37.172 112.855 37.172C113.803 37.172 114.661 37.376 115.429 37.784C116.197 38.192 116.797 38.78 117.229 39.548C117.673 40.304 117.895 41.186 117.895 42.194ZM112.873 39.296C112.237 39.296 111.703 39.476 111.271 39.836C110.839 40.196 110.575 40.688 110.479 41.312H115.249C115.153 40.7 114.889 40.214 114.457 39.854C114.025 39.482 113.497 39.296 112.873 39.296ZM123.023 47.144C122.219 47.144 121.433 47.048 120.665 46.856C119.897 46.652 119.285 46.4 118.829 46.1L119.765 44.084C120.197 44.36 120.719 44.588 121.331 44.768C121.943 44.936 122.543 45.02 123.131 45.02C124.319 45.02 124.913 44.726 124.913 44.138C124.913 43.862 124.751 43.664 124.427 43.544C124.103 43.424 123.605 43.322 122.933 43.238C122.141 43.118 121.487 42.98 120.971 42.824C120.455 42.668 120.005 42.392 119.621 41.996C119.249 41.6 119.063 41.036 119.063 40.304C119.063 39.692 119.237 39.152 119.585 38.684C119.945 38.204 120.461 37.832 121.133 37.568C121.817 37.304 122.621 37.172 123.545 37.172C124.229 37.172 124.907 37.25 125.579 37.406C126.263 37.55 126.827 37.754 127.271 38.018L126.335 40.016C125.483 39.536 124.553 39.296 123.545 39.296C122.945 39.296 122.495 39.38 122.195 39.548C121.895 39.716 121.745 39.932 121.745 40.196C121.745 40.496 121.907 40.706 122.231 40.826C122.555 40.946 123.071 41.06 123.779 41.168C124.571 41.3 125.219 41.444 125.723 41.6C126.227 41.744 126.665 42.014 127.037 42.41C127.409 42.806 127.595 43.358 127.595 44.066C127.595 44.666 127.415 45.2 127.055 45.668C126.695 46.136 126.167 46.502 125.471 46.766C124.787 47.018 123.971 47.144 123.023 47.144Z" fill="black"/>
<path d="M51.774 61.2V71H50.78V63.16L46.93 69.754H46.44L42.59 63.202V71H41.596V61.2H42.45L46.706 68.466L50.92 61.2H51.774ZM57.3331 63.58C58.2944 63.58 59.0318 63.8227 59.5451 64.308C60.0584 64.784 60.3151 65.4933 60.3151 66.436V71H59.3631V69.852C59.1391 70.2347 58.8078 70.5333 58.3691 70.748C57.9398 70.9627 57.4264 71.07 56.8291 71.07C56.0078 71.07 55.3544 70.874 54.8691 70.482C54.3838 70.09 54.1411 69.572 54.1411 68.928C54.1411 68.3027 54.3651 67.7987 54.8131 67.416C55.2704 67.0333 55.9938 66.842 56.9831 66.842H59.3211V66.394C59.3211 65.7593 59.1438 65.2787 58.7891 64.952C58.4344 64.616 57.9164 64.448 57.2351 64.448C56.7684 64.448 56.3204 64.5273 55.8911 64.686C55.4618 64.8353 55.0931 65.0453 54.7851 65.316L54.3371 64.574C54.7104 64.2567 55.1584 64.014 55.6811 63.846C56.2038 63.6687 56.7544 63.58 57.3331 63.58ZM56.9831 70.286C57.5431 70.286 58.0238 70.16 58.4251 69.908C58.8264 69.6467 59.1251 69.2733 59.3211 68.788V67.584H57.0111C55.7511 67.584 55.1211 68.0227 55.1211 68.9C55.1211 69.3293 55.2844 69.67 55.6111 69.922C55.9378 70.1647 56.3951 70.286 56.9831 70.286ZM69.0662 63.636L65.3842 71.882C65.0855 72.5727 64.7402 73.0627 64.3482 73.352C63.9562 73.6413 63.4849 73.786 62.9342 73.786C62.5795 73.786 62.2482 73.73 61.9402 73.618C61.6322 73.506 61.3662 73.338 61.1422 73.114L61.6042 72.372C61.9775 72.7453 62.4255 72.932 62.9482 72.932C63.2842 72.932 63.5689 72.8387 63.8022 72.652C64.0449 72.4653 64.2689 72.148 64.4742 71.7L64.7962 70.986L61.5062 63.636H62.5422L65.3142 69.894L68.0862 63.636H69.0662ZM73.5841 66.772H77.2521V67.64H73.5841V66.772ZM84.3999 71.084C83.8399 71.084 83.3219 70.9627 82.8459 70.72C82.3699 70.4773 81.9826 70.132 81.6839 69.684L82.2999 68.984C82.8412 69.7867 83.5459 70.188 84.4139 70.188C85.6272 70.188 86.2339 69.4693 86.2339 68.032V62.096H82.6499V61.2H87.2559V67.99C87.2559 69.0167 87.0132 69.7913 86.5279 70.314C86.0519 70.8273 85.3426 71.084 84.3999 71.084ZM96.7896 63.636V71H95.8376V69.656C95.5762 70.104 95.2169 70.454 94.7596 70.706C94.3022 70.9487 93.7796 71.07 93.1916 71.07C92.2302 71.07 91.4696 70.804 90.9096 70.272C90.3589 69.7307 90.0836 68.942 90.0836 67.906V63.636H91.0776V67.808C91.0776 68.5827 91.2689 69.1707 91.6516 69.572C92.0342 69.9733 92.5802 70.174 93.2896 70.174C94.0642 70.174 94.6756 69.9407 95.1236 69.474C95.5716 68.998 95.7956 68.34 95.7956 67.5V63.636H96.7896ZM103.326 63.58C104.25 63.58 104.982 63.8507 105.524 64.392C106.074 64.924 106.35 65.7033 106.35 66.73V71H105.356V66.828C105.356 66.0627 105.164 65.4793 104.782 65.078C104.399 64.6767 103.853 64.476 103.144 64.476C102.35 64.476 101.72 64.714 101.254 65.19C100.796 65.6567 100.568 66.3053 100.568 67.136V71H99.5735V63.636H100.526V64.994C100.796 64.546 101.17 64.2007 101.646 63.958C102.131 63.706 102.691 63.58 103.326 63.58ZM115.487 67.626H109.327C109.383 68.3913 109.677 69.012 110.209 69.488C110.741 69.9547 111.413 70.188 112.225 70.188C112.683 70.188 113.103 70.1087 113.485 69.95C113.868 69.782 114.199 69.5393 114.479 69.222L115.039 69.866C114.713 70.258 114.302 70.5567 113.807 70.762C113.322 70.9673 112.785 71.07 112.197 71.07C111.441 71.07 110.769 70.9113 110.181 70.594C109.603 70.2673 109.15 69.8193 108.823 69.25C108.497 68.6807 108.333 68.0367 108.333 67.318C108.333 66.5993 108.487 65.9553 108.795 65.386C109.113 64.8167 109.542 64.3733 110.083 64.056C110.634 63.7387 111.25 63.58 111.931 63.58C112.613 63.58 113.224 63.7387 113.765 64.056C114.307 64.3733 114.731 64.8167 115.039 65.386C115.347 65.946 115.501 66.59 115.501 67.318L115.487 67.626ZM111.931 64.434C111.222 64.434 110.625 64.6627 110.139 65.12C109.663 65.568 109.393 66.156 109.327 66.884H114.549C114.484 66.156 114.209 65.568 113.723 65.12C113.247 64.6627 112.65 64.434 111.931 64.434ZM127.223 70.104V71H120.349V70.286L124.423 66.296C124.936 65.792 125.281 65.358 125.459 64.994C125.645 64.6207 125.739 64.2473 125.739 63.874C125.739 63.2953 125.538 62.8473 125.137 62.53C124.745 62.2033 124.18 62.04 123.443 62.04C122.295 62.04 121.403 62.404 120.769 63.132L120.055 62.516C120.437 62.068 120.923 61.7227 121.511 61.48C122.108 61.2373 122.78 61.116 123.527 61.116C124.525 61.116 125.314 61.354 125.893 61.83C126.481 62.2967 126.775 62.9407 126.775 63.762C126.775 64.266 126.663 64.7513 126.439 65.218C126.215 65.6847 125.79 66.2213 125.165 66.828L121.833 70.104H127.223ZM132.339 71.084C131.583 71.084 130.906 70.8833 130.309 70.482C129.721 70.0807 129.259 69.5067 128.923 68.76C128.596 68.004 128.433 67.1173 128.433 66.1C128.433 65.0827 128.596 64.2007 128.923 63.454C129.259 62.698 129.721 62.1193 130.309 61.718C130.906 61.3167 131.583 61.116 132.339 61.116C133.095 61.116 133.767 61.3167 134.355 61.718C134.952 62.1193 135.419 62.698 135.755 63.454C136.091 64.2007 136.259 65.0827 136.259 66.1C136.259 67.1173 136.091 68.004 135.755 68.76C135.419 69.5067 134.952 70.0807 134.355 70.482C133.767 70.8833 133.095 71.084 132.339 71.084ZM132.339 70.16C132.908 70.16 133.408 70.0013 133.837 69.684C134.276 69.3667 134.616 68.9047 134.859 68.298C135.102 67.6913 135.223 66.9587 135.223 66.1C135.223 65.2413 135.102 64.5087 134.859 63.902C134.616 63.2953 134.276 62.8333 133.837 62.516C133.408 62.1987 132.908 62.04 132.339 62.04C131.77 62.04 131.266 62.1987 130.827 62.516C130.398 62.8333 130.062 63.2953 129.819 63.902C129.576 64.5087 129.455 65.2413 129.455 66.1C129.455 66.9587 129.576 67.6913 129.819 68.298C130.062 68.9047 130.398 69.3667 130.827 69.684C131.266 70.0013 131.77 70.16 132.339 70.16ZM144.367 70.104V71H137.493V70.286L141.567 66.296C142.081 65.792 142.426 65.358 142.603 64.994C142.79 64.6207 142.883 64.2473 142.883 63.874C142.883 63.2953 142.683 62.8473 142.281 62.53C141.889 62.2033 141.325 62.04 140.587 62.04C139.439 62.04 138.548 62.404 137.913 63.132L137.199 62.516C137.582 62.068 138.067 61.7227 138.655 61.48C139.253 61.2373 139.925 61.116 140.671 61.116C141.67 61.116 142.459 61.354 143.037 61.83C143.625 62.2967 143.919 62.9407 143.919 63.762C143.919 64.266 143.807 64.7513 143.583 65.218C143.359 65.6847 142.935 66.2213 142.309 66.828L138.977 70.104H144.367ZM148.348 61.2V71H147.34V62.096H145.03V61.2H148.348Z" fill="#858585"/>
<path d="M156.219 65.2557C156.519 64.9278 156.938 64.902 157.306 65.2557L160.001 68.0111L162.696 65.2557C163.064 64.902 163.483 64.9278 163.782 65.2557C164.082 65.583 164.063 66.1359 163.782 66.4433C163.502 66.7507 160.544 69.7539 160.544 69.7539C160.473 69.8317 160.389 69.8936 160.295 69.9359C160.202 69.9782 160.102 70 160 70C159.899 70 159.798 69.9782 159.705 69.9359C159.612 69.8936 159.527 69.8317 159.457 69.7539C159.457 69.7539 156.5 66.7507 156.219 66.4433C155.937 66.1359 155.918 65.583 156.219 65.2557Z" fill="#858585"/>
<path d="M42.534 112.756C43.0567 112.644 43.5373 112.588 43.976 112.588C44.4987 112.588 44.9607 112.665 45.362 112.819C45.7633 112.973 46.097 113.185 46.363 113.456C46.6337 113.727 46.8367 114.046 46.972 114.415C47.112 114.784 47.182 115.185 47.182 115.619C47.182 116.151 47.0887 116.632 46.902 117.061C46.72 117.49 46.4657 117.859 46.139 118.167C45.817 118.47 45.4367 118.704 44.998 118.867C44.5593 119.03 44.0857 119.112 43.577 119.112C43.283 119.112 43.0007 119.082 42.73 119.021C42.4593 118.965 42.205 118.888 41.967 118.79C41.7337 118.692 41.5167 118.58 41.316 118.454C41.1153 118.328 40.938 118.195 40.784 118.055L41.169 117.523C41.253 117.402 41.3627 117.341 41.498 117.341C41.5913 117.341 41.6963 117.378 41.813 117.453C41.9297 117.523 42.072 117.602 42.24 117.691C42.408 117.78 42.604 117.861 42.828 117.936C43.0567 118.006 43.3273 118.041 43.64 118.041C43.99 118.041 44.305 117.985 44.585 117.873C44.865 117.761 45.1053 117.602 45.306 117.397C45.5067 117.187 45.6607 116.937 45.768 116.648C45.8753 116.359 45.929 116.034 45.929 115.675C45.929 115.362 45.8823 115.08 45.789 114.828C45.7003 114.576 45.5627 114.361 45.376 114.184C45.194 114.007 44.9653 113.869 44.69 113.771C44.4147 113.673 44.0927 113.624 43.724 113.624C43.472 113.624 43.2083 113.645 42.933 113.687C42.6623 113.729 42.3847 113.797 42.1 113.89L41.316 113.659L42.121 108.969H46.874V109.515C46.874 109.692 46.818 109.839 46.706 109.956C46.5987 110.068 46.412 110.124 46.146 110.124H42.996L42.534 112.756ZM55.8211 113.988C55.8211 114.865 55.7254 115.626 55.5341 116.27C55.3474 116.909 55.0908 117.439 54.7641 117.859C54.4374 118.279 54.0501 118.592 53.6021 118.797C53.1588 119.002 52.6828 119.105 52.1741 119.105C51.6608 119.105 51.1824 119.002 50.7391 118.797C50.3004 118.592 49.9178 118.279 49.5911 117.859C49.2644 117.439 49.0078 116.909 48.8211 116.27C48.6344 115.626 48.5411 114.865 48.5411 113.988C48.5411 113.111 48.6344 112.35 48.8211 111.706C49.0078 111.062 49.2644 110.53 49.5911 110.11C49.9178 109.685 50.3004 109.37 50.7391 109.165C51.1824 108.96 51.6608 108.857 52.1741 108.857C52.6828 108.857 53.1588 108.96 53.6021 109.165C54.0501 109.37 54.4374 109.685 54.7641 110.11C55.0908 110.53 55.3474 111.062 55.5341 111.706C55.7254 112.35 55.8211 113.111 55.8211 113.988ZM54.5261 113.988C54.5261 113.223 54.4608 112.581 54.3301 112.063C54.2041 111.54 54.0314 111.12 53.8121 110.803C53.5974 110.486 53.3478 110.259 53.0631 110.124C52.7784 109.984 52.4821 109.914 52.1741 109.914C51.8661 109.914 51.5698 109.984 51.2851 110.124C51.0004 110.259 50.7508 110.486 50.5361 110.803C50.3214 111.12 50.1488 111.54 50.0181 112.063C49.8921 112.581 49.8291 113.223 49.8291 113.988C49.8291 114.753 49.8921 115.395 50.0181 115.913C50.1488 116.431 50.3214 116.849 50.5361 117.166C50.7508 117.483 51.0004 117.712 51.2851 117.852C51.5698 117.987 51.8661 118.055 52.1741 118.055C52.4821 118.055 52.7784 117.987 53.0631 117.852C53.3478 117.712 53.5974 117.483 53.8121 117.166C54.0314 116.849 54.2041 116.431 54.3301 115.913C54.4608 115.395 54.5261 114.753 54.5261 113.988ZM63.9422 113.988C63.9422 114.865 63.8465 115.626 63.6552 116.27C63.4685 116.909 63.2119 117.439 62.8852 117.859C62.5585 118.279 62.1712 118.592 61.7232 118.797C61.2799 119.002 60.8039 119.105 60.2952 119.105C59.7819 119.105 59.3035 119.002 58.8602 118.797C58.4215 118.592 58.0389 118.279 57.7122 117.859C57.3855 117.439 57.1289 116.909 56.9422 116.27C56.7555 115.626 56.6622 114.865 56.6622 113.988C56.6622 113.111 56.7555 112.35 56.9422 111.706C57.1289 111.062 57.3855 110.53 57.7122 110.11C58.0389 109.685 58.4215 109.37 58.8602 109.165C59.3035 108.96 59.7819 108.857 60.2952 108.857C60.8039 108.857 61.2799 108.96 61.7232 109.165C62.1712 109.37 62.5585 109.685 62.8852 110.11C63.2119 110.53 63.4685 111.062 63.6552 111.706C63.8465 112.35 63.9422 113.111 63.9422 113.988ZM62.6472 113.988C62.6472 113.223 62.5819 112.581 62.4512 112.063C62.3252 111.54 62.1525 111.12 61.9332 110.803C61.7185 110.486 61.4689 110.259 61.1842 110.124C60.8995 109.984 60.6032 109.914 60.2952 109.914C59.9872 109.914 59.6909 109.984 59.4062 110.124C59.1215 110.259 58.8719 110.486 58.6572 110.803C58.4425 111.12 58.2699 111.54 58.1392 112.063C58.0132 112.581 57.9502 113.223 57.9502 113.988C57.9502 114.753 58.0132 115.395 58.1392 115.913C58.2699 116.431 58.4425 116.849 58.6572 117.166C58.8719 117.483 59.1215 117.712 59.4062 117.852C59.6909 117.987 59.9872 118.055 60.2952 118.055C60.6032 118.055 60.8995 117.987 61.1842 117.852C61.4689 117.712 61.7185 117.483 61.9332 117.166C62.1525 116.849 62.3252 116.431 62.4512 115.913C62.5819 115.395 62.6472 114.753 62.6472 113.988Z" fill="#858585"/>
<line x1="80" y1="114.5" x2="961" y2="114.5" stroke="#EAEAEA"/>
<path d="M40.91 189.685C40.9753 189.228 41.1013 188.824 41.288 188.474C41.4747 188.119 41.7103 187.823 41.995 187.585C42.2843 187.347 42.6133 187.167 42.982 187.046C43.3553 186.92 43.7567 186.857 44.186 186.857C44.6107 186.857 45.0027 186.918 45.362 187.039C45.7213 187.16 46.0293 187.333 46.286 187.557C46.5473 187.781 46.7503 188.052 46.895 188.369C47.0397 188.686 47.112 189.039 47.112 189.426C47.112 189.743 47.07 190.028 46.986 190.28C46.9067 190.527 46.79 190.744 46.636 190.931C46.4867 191.118 46.3047 191.276 46.09 191.407C45.8753 191.538 45.635 191.645 45.369 191.729C46.0223 191.897 46.5123 192.186 46.839 192.597C47.1703 193.003 47.336 193.512 47.336 194.123C47.336 194.585 47.2473 195 47.07 195.369C46.8973 195.738 46.6593 196.053 46.356 196.314C46.0527 196.571 45.698 196.769 45.292 196.909C44.8907 197.044 44.459 197.112 43.997 197.112C43.465 197.112 43.01 197.047 42.632 196.916C42.254 196.781 41.9343 196.596 41.673 196.363C41.4117 196.13 41.197 195.854 41.029 195.537C40.861 195.215 40.7187 194.867 40.602 194.494L41.141 194.27C41.281 194.209 41.4163 194.193 41.547 194.221C41.6823 194.249 41.7803 194.326 41.841 194.452C41.9017 194.583 41.9763 194.739 42.065 194.921C42.1583 195.103 42.2843 195.278 42.443 195.446C42.6017 195.614 42.8023 195.756 43.045 195.873C43.2923 195.99 43.605 196.048 43.983 196.048C44.333 196.048 44.6387 195.992 44.9 195.88C45.166 195.763 45.3853 195.614 45.558 195.432C45.7353 195.25 45.8683 195.047 45.957 194.823C46.0457 194.599 46.09 194.377 46.09 194.158C46.09 193.887 46.055 193.64 45.985 193.416C45.915 193.192 45.7843 192.998 45.593 192.835C45.4017 192.672 45.138 192.543 44.802 192.45C44.4707 192.357 44.0437 192.31 43.521 192.31V191.407C43.9503 191.402 44.3143 191.356 44.613 191.267C44.9163 191.178 45.1613 191.057 45.348 190.903C45.5393 190.749 45.677 190.565 45.761 190.35C45.8497 190.135 45.894 189.897 45.894 189.636C45.894 189.347 45.8473 189.095 45.754 188.88C45.6653 188.665 45.5417 188.488 45.383 188.348C45.2243 188.208 45.0353 188.103 44.816 188.033C44.6013 187.963 44.368 187.928 44.116 187.928C43.864 187.928 43.6283 187.965 43.409 188.04C43.1943 188.115 43.003 188.22 42.835 188.355C42.6717 188.486 42.534 188.642 42.422 188.824C42.31 189.006 42.2307 189.207 42.184 189.426C42.1233 189.589 42.0463 189.699 41.953 189.755C41.8643 189.806 41.7337 189.82 41.561 189.797L40.91 189.685ZM55.8211 191.988C55.8211 192.865 55.7254 193.626 55.5341 194.27C55.3474 194.909 55.0908 195.439 54.7641 195.859C54.4374 196.279 54.0501 196.592 53.6021 196.797C53.1588 197.002 52.6828 197.105 52.1741 197.105C51.6608 197.105 51.1824 197.002 50.7391 196.797C50.3004 196.592 49.9178 196.279 49.5911 195.859C49.2644 195.439 49.0078 194.909 48.8211 194.27C48.6344 193.626 48.5411 192.865 48.5411 191.988C48.5411 191.111 48.6344 190.35 48.8211 189.706C49.0078 189.062 49.2644 188.53 49.5911 188.11C49.9178 187.685 50.3004 187.37 50.7391 187.165C51.1824 186.96 51.6608 186.857 52.1741 186.857C52.6828 186.857 53.1588 186.96 53.6021 187.165C54.0501 187.37 54.4374 187.685 54.7641 188.11C55.0908 188.53 55.3474 189.062 55.5341 189.706C55.7254 190.35 55.8211 191.111 55.8211 191.988ZM54.5261 191.988C54.5261 191.223 54.4608 190.581 54.3301 190.063C54.2041 189.54 54.0314 189.12 53.8121 188.803C53.5974 188.486 53.3478 188.259 53.0631 188.124C52.7784 187.984 52.4821 187.914 52.1741 187.914C51.8661 187.914 51.5698 187.984 51.2851 188.124C51.0004 188.259 50.7508 188.486 50.5361 188.803C50.3214 189.12 50.1488 189.54 50.0181 190.063C49.8921 190.581 49.8291 191.223 49.8291 191.988C49.8291 192.753 49.8921 193.395 50.0181 193.913C50.1488 194.431 50.3214 194.849 50.5361 195.166C50.7508 195.483 51.0004 195.712 51.2851 195.852C51.5698 195.987 51.8661 196.055 52.1741 196.055C52.4821 196.055 52.7784 195.987 53.0631 195.852C53.3478 195.712 53.5974 195.483 53.8121 195.166C54.0314 194.849 54.2041 194.431 54.3301 193.913C54.4608 193.395 54.5261 192.753 54.5261 191.988ZM63.9422 191.988C63.9422 192.865 63.8465 193.626 63.6552 194.27C63.4685 194.909 63.2119 195.439 62.8852 195.859C62.5585 196.279 62.1712 196.592 61.7232 196.797C61.2799 197.002 60.8039 197.105 60.2952 197.105C59.7819 197.105 59.3035 197.002 58.8602 196.797C58.4215 196.592 58.0389 196.279 57.7122 195.859C57.3855 195.439 57.1289 194.909 56.9422 194.27C56.7555 193.626 56.6622 192.865 56.6622 191.988C56.6622 191.111 56.7555 190.35 56.9422 189.706C57.1289 189.062 57.3855 188.53 57.7122 188.11C58.0389 187.685 58.4215 187.37 58.8602 187.165C59.3035 186.96 59.7819 186.857 60.2952 186.857C60.8039 186.857 61.2799 186.96 61.7232 187.165C62.1712 187.37 62.5585 187.685 62.8852 188.11C63.2119 188.53 63.4685 189.062 63.6552 189.706C63.8465 190.35 63.9422 191.111 63.9422 191.988ZM62.6472 191.988C62.6472 191.223 62.5819 190.581 62.4512 190.063C62.3252 189.54 62.1525 189.12 61.9332 188.803C61.7185 188.486 61.4689 188.259 61.1842 188.124C60.8995 187.984 60.6032 187.914 60.2952 187.914C59.9872 187.914 59.6909 187.984 59.4062 188.124C59.1215 188.259 58.8719 188.486 58.6572 188.803C58.4425 189.12 58.2699 189.54 58.1392 190.063C58.0132 190.581 57.9502 191.223 57.9502 191.988C57.9502 192.753 58.0132 193.395 58.1392 193.913C58.2699 194.431 58.4425 194.849 58.6572 195.166C58.8719 195.483 59.1215 195.712 59.4062 195.852C59.6909 195.987 59.9872 196.055 60.2952 196.055C60.6032 196.055 60.8995 195.987 61.1842 195.852C61.4689 195.712 61.7185 195.483 61.9332 195.166C62.1525 194.849 62.3252 194.431 62.4512 193.913C62.5819 193.395 62.6472 192.753 62.6472 191.988Z" fill="#858585"/>
<line x1="80" y1="192.5" x2="961" y2="192.5" stroke="#EAEAEA"/>
<path d="M45.11 154.381V150.244C45.11 150.123 45.1147 149.99 45.124 149.845C45.1333 149.7 45.1473 149.553 45.166 149.404L41.512 154.381H45.11ZM47.721 154.381V155.095C47.721 155.17 47.6977 155.233 47.651 155.284C47.609 155.335 47.5413 155.361 47.448 155.361H46.202V158H45.11V155.361H40.658C40.5647 155.361 40.483 155.335 40.413 155.284C40.3477 155.228 40.3057 155.16 40.287 155.081L40.161 154.444L45.04 147.969H46.202V154.381H47.721ZM55.8211 152.988C55.8211 153.865 55.7254 154.626 55.5341 155.27C55.3474 155.909 55.0908 156.439 54.7641 156.859C54.4374 157.279 54.0501 157.592 53.6021 157.797C53.1588 158.002 52.6828 158.105 52.1741 158.105C51.6608 158.105 51.1824 158.002 50.7391 157.797C50.3004 157.592 49.9178 157.279 49.5911 156.859C49.2644 156.439 49.0078 155.909 48.8211 155.27C48.6344 154.626 48.5411 153.865 48.5411 152.988C48.5411 152.111 48.6344 151.35 48.8211 150.706C49.0078 150.062 49.2644 149.53 49.5911 149.11C49.9178 148.685 50.3004 148.37 50.7391 148.165C51.1824 147.96 51.6608 147.857 52.1741 147.857C52.6828 147.857 53.1588 147.96 53.6021 148.165C54.0501 148.37 54.4374 148.685 54.7641 149.11C55.0908 149.53 55.3474 150.062 55.5341 150.706C55.7254 151.35 55.8211 152.111 55.8211 152.988ZM54.5261 152.988C54.5261 152.223 54.4608 151.581 54.3301 151.063C54.2041 150.54 54.0314 150.12 53.8121 149.803C53.5974 149.486 53.3478 149.259 53.0631 149.124C52.7784 148.984 52.4821 148.914 52.1741 148.914C51.8661 148.914 51.5698 148.984 51.2851 149.124C51.0004 149.259 50.7508 149.486 50.5361 149.803C50.3214 150.12 50.1488 150.54 50.0181 151.063C49.8921 151.581 49.8291 152.223 49.8291 152.988C49.8291 153.753 49.8921 154.395 50.0181 154.913C50.1488 155.431 50.3214 155.849 50.5361 156.166C50.7508 156.483 51.0004 156.712 51.2851 156.852C51.5698 156.987 51.8661 157.055 52.1741 157.055C52.4821 157.055 52.7784 156.987 53.0631 156.852C53.3478 156.712 53.5974 156.483 53.8121 156.166C54.0314 155.849 54.2041 155.431 54.3301 154.913C54.4608 154.395 54.5261 153.753 54.5261 152.988ZM63.9422 152.988C63.9422 153.865 63.8465 154.626 63.6552 155.27C63.4685 155.909 63.2119 156.439 62.8852 156.859C62.5585 157.279 62.1712 157.592 61.7232 157.797C61.2799 158.002 60.8039 158.105 60.2952 158.105C59.7819 158.105 59.3035 158.002 58.8602 157.797C58.4215 157.592 58.0389 157.279 57.7122 156.859C57.3855 156.439 57.1289 155.909 56.9422 155.27C56.7555 154.626 56.6622 153.865 56.6622 152.988C56.6622 152.111 56.7555 151.35 56.9422 150.706C57.1289 150.062 57.3855 149.53 57.7122 149.11C58.0389 148.685 58.4215 148.37 58.8602 148.165C59.3035 147.96 59.7819 147.857 60.2952 147.857C60.8039 147.857 61.2799 147.96 61.7232 148.165C62.1712 148.37 62.5585 148.685 62.8852 149.11C63.2119 149.53 63.4685 150.062 63.6552 150.706C63.8465 151.35 63.9422 152.111 63.9422 152.988ZM62.6472 152.988C62.6472 152.223 62.5819 151.581 62.4512 151.063C62.3252 150.54 62.1525 150.12 61.9332 149.803C61.7185 149.486 61.4689 149.259 61.1842 149.124C60.8995 148.984 60.6032 148.914 60.2952 148.914C59.9872 148.914 59.6909 148.984 59.4062 149.124C59.1215 149.259 58.8719 149.486 58.6572 149.803C58.4425 150.12 58.2699 150.54 58.1392 151.063C58.0132 151.581 57.9502 152.223 57.9502 152.988C57.9502 153.753 58.0132 154.395 58.1392 154.913C58.2699 155.431 58.4425 155.849 58.6572 156.166C58.8719 156.483 59.1215 156.712 59.4062 156.852C59.6909 156.987 59.9872 157.055 60.2952 157.055C60.6032 157.055 60.8995 156.987 61.1842 156.852C61.4689 156.712 61.7185 156.483 61.9332 156.166C62.1525 155.849 62.3252 155.431 62.4512 154.913C62.5819 154.395 62.6472 153.753 62.6472 152.988Z" fill="#858585"/>
<line x1="80" y1="153.5" x2="961" y2="153.5" stroke="#EAEAEA"/>
<path d="M46.909 234.817C47.0443 234.817 47.1517 234.857 47.231 234.936C47.3103 235.015 47.35 235.118 47.35 235.244V236H40.658V235.573C40.658 235.484 40.6767 235.393 40.714 235.3C40.7513 235.207 40.8097 235.12 40.889 235.041L44.102 231.814C44.368 231.543 44.6107 231.284 44.83 231.037C45.0493 230.785 45.236 230.533 45.39 230.281C45.544 230.029 45.663 229.775 45.747 229.518C45.831 229.257 45.873 228.979 45.873 228.685C45.873 228.391 45.8263 228.134 45.733 227.915C45.6397 227.691 45.5113 227.507 45.348 227.362C45.1893 227.217 45.0003 227.11 44.781 227.04C44.5617 226.965 44.326 226.928 44.074 226.928C43.8173 226.928 43.5817 226.965 43.367 227.04C43.1523 227.115 42.961 227.22 42.793 227.355C42.6297 227.486 42.492 227.642 42.38 227.824C42.268 228.006 42.1887 228.207 42.142 228.426C42.086 228.589 42.009 228.699 41.911 228.755C41.8177 228.806 41.6847 228.82 41.512 228.797L40.861 228.685C40.9263 228.228 41.0523 227.824 41.239 227.474C41.4303 227.119 41.6683 226.823 41.953 226.585C42.2423 226.347 42.5713 226.167 42.94 226.046C43.3087 225.92 43.7077 225.857 44.137 225.857C44.5617 225.857 44.9583 225.92 45.327 226.046C45.6957 226.172 46.0153 226.356 46.286 226.599C46.5567 226.837 46.769 227.129 46.923 227.474C47.077 227.819 47.154 228.211 47.154 228.65C47.154 229.023 47.098 229.371 46.986 229.693C46.874 230.01 46.7223 230.314 46.531 230.603C46.3397 230.892 46.118 231.175 45.866 231.45C45.6187 231.725 45.355 232.003 45.075 232.283L42.429 234.985C42.6157 234.934 42.8047 234.894 42.996 234.866C43.1873 234.833 43.3717 234.817 43.549 234.817H46.909ZM55.8211 230.988C55.8211 231.865 55.7254 232.626 55.5341 233.27C55.3474 233.909 55.0908 234.439 54.7641 234.859C54.4374 235.279 54.0501 235.592 53.6021 235.797C53.1588 236.002 52.6828 236.105 52.1741 236.105C51.6608 236.105 51.1824 236.002 50.7391 235.797C50.3004 235.592 49.9178 235.279 49.5911 234.859C49.2644 234.439 49.0078 233.909 48.8211 233.27C48.6344 232.626 48.5411 231.865 48.5411 230.988C48.5411 230.111 48.6344 229.35 48.8211 228.706C49.0078 228.062 49.2644 227.53 49.5911 227.11C49.9178 226.685 50.3004 226.37 50.7391 226.165C51.1824 225.96 51.6608 225.857 52.1741 225.857C52.6828 225.857 53.1588 225.96 53.6021 226.165C54.0501 226.37 54.4374 226.685 54.7641 227.11C55.0908 227.53 55.3474 228.062 55.5341 228.706C55.7254 229.35 55.8211 230.111 55.8211 230.988ZM54.5261 230.988C54.5261 230.223 54.4608 229.581 54.3301 229.063C54.2041 228.54 54.0314 228.12 53.8121 227.803C53.5974 227.486 53.3478 227.259 53.0631 227.124C52.7784 226.984 52.4821 226.914 52.1741 226.914C51.8661 226.914 51.5698 226.984 51.2851 227.124C51.0004 227.259 50.7508 227.486 50.5361 227.803C50.3214 228.12 50.1488 228.54 50.0181 229.063C49.8921 229.581 49.8291 230.223 49.8291 230.988C49.8291 231.753 49.8921 232.395 50.0181 232.913C50.1488 233.431 50.3214 233.849 50.5361 234.166C50.7508 234.483 51.0004 234.712 51.2851 234.852C51.5698 234.987 51.8661 235.055 52.1741 235.055C52.4821 235.055 52.7784 234.987 53.0631 234.852C53.3478 234.712 53.5974 234.483 53.8121 234.166C54.0314 233.849 54.2041 233.431 54.3301 232.913C54.4608 232.395 54.5261 231.753 54.5261 230.988ZM63.9422 230.988C63.9422 231.865 63.8465 232.626 63.6552 233.27C63.4685 233.909 63.2119 234.439 62.8852 234.859C62.5585 235.279 62.1712 235.592 61.7232 235.797C61.2799 236.002 60.8039 236.105 60.2952 236.105C59.7819 236.105 59.3035 236.002 58.8602 235.797C58.4215 235.592 58.0389 235.279 57.7122 234.859C57.3855 234.439 57.1289 233.909 56.9422 233.27C56.7555 232.626 56.6622 231.865 56.6622 230.988C56.6622 230.111 56.7555 229.35 56.9422 228.706C57.1289 228.062 57.3855 227.53 57.7122 227.11C58.0389 226.685 58.4215 226.37 58.8602 226.165C59.3035 225.96 59.7819 225.857 60.2952 225.857C60.8039 225.857 61.2799 225.96 61.7232 226.165C62.1712 226.37 62.5585 226.685 62.8852 227.11C63.2119 227.53 63.4685 228.062 63.6552 228.706C63.8465 229.35 63.9422 230.111 63.9422 230.988ZM62.6472 230.988C62.6472 230.223 62.5819 229.581 62.4512 229.063C62.3252 228.54 62.1525 228.12 61.9332 227.803C61.7185 227.486 61.4689 227.259 61.1842 227.124C60.8995 226.984 60.6032 226.914 60.2952 226.914C59.9872 226.914 59.6909 226.984 59.4062 227.124C59.1215 227.259 58.8719 227.486 58.6572 227.803C58.4425 228.12 58.2699 228.54 58.1392 229.063C58.0132 229.581 57.9502 230.223 57.9502 230.988C57.9502 231.753 58.0132 232.395 58.1392 232.913C58.2699 233.431 58.4425 233.849 58.6572 234.166C58.8719 234.483 59.1215 234.712 59.4062 234.852C59.6909 234.987 59.9872 235.055 60.2952 235.055C60.6032 235.055 60.8995 234.987 61.1842 234.852C61.4689 234.712 61.7185 234.483 61.9332 234.166C62.1525 233.849 62.3252 233.431 62.4512 232.913C62.5819 232.395 62.6472 231.753 62.6472 230.988Z" fill="#858585"/>
<line x1="80" y1="231.5" x2="961" y2="231.5" stroke="#EAEAEA"/>
<path d="M47.126 274.048V275H41.75V274.048H43.899V267.209C43.899 267.004 43.906 266.796 43.92 266.586L42.135 268.119C42.0743 268.17 42.0137 268.203 41.953 268.217C41.8923 268.226 41.8363 268.226 41.785 268.217C41.7337 268.208 41.6847 268.189 41.638 268.161C41.596 268.133 41.5633 268.103 41.54 268.07L41.148 267.531L44.137 264.948H45.152V274.048H47.126ZM55.8211 269.988C55.8211 270.865 55.7254 271.626 55.5341 272.27C55.3474 272.909 55.0908 273.439 54.7641 273.859C54.4374 274.279 54.0501 274.592 53.6021 274.797C53.1588 275.002 52.6828 275.105 52.1741 275.105C51.6608 275.105 51.1824 275.002 50.7391 274.797C50.3004 274.592 49.9178 274.279 49.5911 273.859C49.2644 273.439 49.0078 272.909 48.8211 272.27C48.6344 271.626 48.5411 270.865 48.5411 269.988C48.5411 269.111 48.6344 268.35 48.8211 267.706C49.0078 267.062 49.2644 266.53 49.5911 266.11C49.9178 265.685 50.3004 265.37 50.7391 265.165C51.1824 264.96 51.6608 264.857 52.1741 264.857C52.6828 264.857 53.1588 264.96 53.6021 265.165C54.0501 265.37 54.4374 265.685 54.7641 266.11C55.0908 266.53 55.3474 267.062 55.5341 267.706C55.7254 268.35 55.8211 269.111 55.8211 269.988ZM54.5261 269.988C54.5261 269.223 54.4608 268.581 54.3301 268.063C54.2041 267.54 54.0314 267.12 53.8121 266.803C53.5974 266.486 53.3478 266.259 53.0631 266.124C52.7784 265.984 52.4821 265.914 52.1741 265.914C51.8661 265.914 51.5698 265.984 51.2851 266.124C51.0004 266.259 50.7508 266.486 50.5361 266.803C50.3214 267.12 50.1488 267.54 50.0181 268.063C49.8921 268.581 49.8291 269.223 49.8291 269.988C49.8291 270.753 49.8921 271.395 50.0181 271.913C50.1488 272.431 50.3214 272.849 50.5361 273.166C50.7508 273.483 51.0004 273.712 51.2851 273.852C51.5698 273.987 51.8661 274.055 52.1741 274.055C52.4821 274.055 52.7784 273.987 53.0631 273.852C53.3478 273.712 53.5974 273.483 53.8121 273.166C54.0314 272.849 54.2041 272.431 54.3301 271.913C54.4608 271.395 54.5261 270.753 54.5261 269.988ZM63.9422 269.988C63.9422 270.865 63.8465 271.626 63.6552 272.27C63.4685 272.909 63.2119 273.439 62.8852 273.859C62.5585 274.279 62.1712 274.592 61.7232 274.797C61.2799 275.002 60.8039 275.105 60.2952 275.105C59.7819 275.105 59.3035 275.002 58.8602 274.797C58.4215 274.592 58.0389 274.279 57.7122 273.859C57.3855 273.439 57.1289 272.909 56.9422 272.27C56.7555 271.626 56.6622 270.865 56.6622 269.988C56.6622 269.111 56.7555 268.35 56.9422 267.706C57.1289 267.062 57.3855 266.53 57.7122 266.11C58.0389 265.685 58.4215 265.37 58.8602 265.165C59.3035 264.96 59.7819 264.857 60.2952 264.857C60.8039 264.857 61.2799 264.96 61.7232 265.165C62.1712 265.37 62.5585 265.685 62.8852 266.11C63.2119 266.53 63.4685 267.062 63.6552 267.706C63.8465 268.35 63.9422 269.111 63.9422 269.988ZM62.6472 269.988C62.6472 269.223 62.5819 268.581 62.4512 268.063C62.3252 267.54 62.1525 267.12 61.9332 266.803C61.7185 266.486 61.4689 266.259 61.1842 266.124C60.8995 265.984 60.6032 265.914 60.2952 265.914C59.9872 265.914 59.6909 265.984 59.4062 266.124C59.1215 266.259 58.8719 266.486 58.6572 266.803C58.4425 267.12 58.2699 267.54 58.1392 268.063C58.0132 268.581 57.9502 269.223 57.9502 269.988C57.9502 270.753 58.0132 271.395 58.1392 271.913C58.2699 272.431 58.4425 272.849 58.6572 273.166C58.8719 273.483 59.1215 273.712 59.4062 273.852C59.6909 273.987 59.9872 274.055 60.2952 274.055C60.6032 274.055 60.8995 273.987 61.1842 273.852C61.4689 273.712 61.7185 273.483 61.9332 273.166C62.1525 272.849 62.3252 272.431 62.4512 271.913C62.5819 271.395 62.6472 270.753 62.6472 269.988Z" fill="#858585"/>
<line x1="80" y1="270.5" x2="961" y2="270.5" stroke="#EAEAEA"/>
<path d="M64.9279 308.988C64.9279 309.865 64.8323 310.626 64.6409 311.27C64.4543 311.909 64.1976 312.439 63.8709 312.859C63.5443 313.279 63.1569 313.592 62.7089 313.797C62.2656 314.002 61.7896 314.105 61.2809 314.105C60.7676 314.105 60.2893 314.002 59.8459 313.797C59.4073 313.592 59.0246 313.279 58.6979 312.859C58.3713 312.439 58.1146 311.909 57.9279 311.27C57.7413 310.626 57.6479 309.865 57.6479 308.988C57.6479 308.111 57.7413 307.35 57.9279 306.706C58.1146 306.062 58.3713 305.53 58.6979 305.11C59.0246 304.685 59.4073 304.37 59.8459 304.165C60.2893 303.96 60.7676 303.857 61.2809 303.857C61.7896 303.857 62.2656 303.96 62.7089 304.165C63.1569 304.37 63.5443 304.685 63.8709 305.11C64.1976 305.53 64.4543 306.062 64.6409 306.706C64.8323 307.35 64.9279 308.111 64.9279 308.988ZM63.6329 308.988C63.6329 308.223 63.5676 307.581 63.4369 307.063C63.3109 306.54 63.1383 306.12 62.9189 305.803C62.7043 305.486 62.4546 305.259 62.1699 305.124C61.8853 304.984 61.5889 304.914 61.2809 304.914C60.9729 304.914 60.6766 304.984 60.3919 305.124C60.1073 305.259 59.8576 305.486 59.6429 305.803C59.4283 306.12 59.2556 306.54 59.1249 307.063C58.9989 307.581 58.9359 308.223 58.9359 308.988C58.9359 309.753 58.9989 310.395 59.1249 310.913C59.2556 311.431 59.4283 311.849 59.6429 312.166C59.8576 312.483 60.1073 312.712 60.3919 312.852C60.6766 312.987 60.9729 313.055 61.2809 313.055C61.5889 313.055 61.8853 312.987 62.1699 312.852C62.4546 312.712 62.7043 312.483 62.9189 312.166C63.1383 311.849 63.3109 311.431 63.4369 310.913C63.5676 310.395 63.6329 309.753 63.6329 308.988Z" fill="#858585"/>
<line x1="80" y1="309.5" x2="961" y2="309.5" stroke="#EAEAEA"/>
<circle cx="792.529" cy="59" r="5" fill="#E9A0A0"/>
<circle cx="890" cy="59" r="5" fill="#9BDD7C"/>
</svg>
