<svg width="480" height="256" viewBox="0 0 480 256" fill="none" xmlns="http://www.w3.org/2000/svg">
<rect width="480" height="256" rx="20" fill="white"/>
<circle cx="249.5" cy="80.5" r="5.5" fill="#98D89E"/>
<path d="M273.358 80.904C273.918 81.0813 274.357 81.38 274.674 81.8C274.991 82.2107 275.15 82.7193 275.15 83.326C275.15 84.1847 274.814 84.8473 274.142 85.314C273.479 85.7713 272.509 86 271.23 86H266.162V76.2H270.95C272.145 76.2 273.059 76.4287 273.694 76.886C274.338 77.3433 274.66 77.964 274.66 78.748C274.66 79.224 274.543 79.6487 274.31 80.022C274.086 80.3953 273.769 80.6893 273.358 80.904ZM268.416 77.908V80.218H270.67C271.23 80.218 271.655 80.12 271.944 79.924C272.233 79.728 272.378 79.4387 272.378 79.056C272.378 78.6733 272.233 78.3887 271.944 78.202C271.655 78.006 271.23 77.908 270.67 77.908H268.416ZM271.062 84.292C271.659 84.292 272.107 84.194 272.406 83.998C272.714 83.802 272.868 83.4987 272.868 83.088C272.868 82.276 272.266 81.87 271.062 81.87H268.416V84.292H271.062ZM279.751 78.356C280.918 78.356 281.814 78.636 282.439 79.196C283.064 79.7467 283.377 80.582 283.377 81.702V86H281.333V85.062C280.922 85.762 280.157 86.112 279.037 86.112C278.458 86.112 277.954 86.014 277.525 85.818C277.105 85.622 276.783 85.3513 276.559 85.006C276.335 84.6607 276.223 84.2687 276.223 83.83C276.223 83.13 276.484 82.5793 277.007 82.178C277.539 81.7767 278.356 81.576 279.457 81.576H281.193C281.193 81.1 281.048 80.736 280.759 80.484C280.47 80.2227 280.036 80.092 279.457 80.092C279.056 80.092 278.659 80.1573 278.267 80.288C277.884 80.4093 277.558 80.5773 277.287 80.792L276.503 79.266C276.914 78.9767 277.404 78.7527 277.973 78.594C278.552 78.4353 279.144 78.356 279.751 78.356ZM279.583 84.642C279.956 84.642 280.288 84.558 280.577 84.39C280.866 84.2127 281.072 83.956 281.193 83.62V82.85H279.695C278.799 82.85 278.351 83.144 278.351 83.732C278.351 84.012 278.458 84.236 278.673 84.404C278.897 84.5627 279.2 84.642 279.583 84.642ZM287.888 86.112C287.262 86.112 286.651 86.0373 286.054 85.888C285.456 85.7293 284.98 85.5333 284.626 85.3L285.354 83.732C285.69 83.9467 286.096 84.124 286.572 84.264C287.048 84.3947 287.514 84.46 287.972 84.46C288.896 84.46 289.358 84.2313 289.358 83.774C289.358 83.5593 289.232 83.4053 288.98 83.312C288.728 83.2187 288.34 83.1393 287.818 83.074C287.202 82.9807 286.693 82.8733 286.292 82.752C285.89 82.6307 285.54 82.416 285.242 82.108C284.952 81.8 284.808 81.3613 284.808 80.792C284.808 80.316 284.943 79.896 285.214 79.532C285.494 79.1587 285.895 78.8693 286.418 78.664C286.95 78.4587 287.575 78.356 288.294 78.356C288.826 78.356 289.353 78.4167 289.876 78.538C290.408 78.65 290.846 78.8087 291.192 79.014L290.464 80.568C289.801 80.1947 289.078 80.008 288.294 80.008C287.827 80.008 287.477 80.0733 287.244 80.204C287.01 80.3347 286.894 80.5027 286.894 80.708C286.894 80.9413 287.02 81.1047 287.272 81.198C287.524 81.2913 287.925 81.38 288.476 81.464C289.092 81.5667 289.596 81.6787 289.988 81.8C290.38 81.912 290.72 82.122 291.01 82.43C291.299 82.738 291.444 83.1673 291.444 83.718C291.444 84.1847 291.304 84.6 291.024 84.964C290.744 85.328 290.333 85.6127 289.792 85.818C289.26 86.014 288.625 86.112 287.888 86.112ZM292.791 78.468H294.975V86H292.791V78.468ZM293.883 77.418C293.482 77.418 293.155 77.3013 292.903 77.068C292.651 76.8347 292.525 76.5453 292.525 76.2C292.525 75.8547 292.651 75.5653 292.903 75.332C293.155 75.0987 293.482 74.982 293.883 74.982C294.285 74.982 294.611 75.094 294.863 75.318C295.115 75.542 295.241 75.822 295.241 76.158C295.241 76.522 295.115 76.8253 294.863 77.068C294.611 77.3013 294.285 77.418 293.883 77.418ZM300.642 86.112C299.839 86.112 299.116 85.9487 298.472 85.622C297.837 85.286 297.338 84.824 296.974 84.236C296.619 83.648 296.442 82.9807 296.442 82.234C296.442 81.4873 296.619 80.82 296.974 80.232C297.338 79.644 297.837 79.1867 298.472 78.86C299.116 78.524 299.839 78.356 300.642 78.356C301.435 78.356 302.126 78.524 302.714 78.86C303.311 79.1867 303.745 79.658 304.016 80.274L302.322 81.184C301.93 80.4933 301.365 80.148 300.628 80.148C300.059 80.148 299.587 80.3347 299.214 80.708C298.841 81.0813 298.654 81.59 298.654 82.234C298.654 82.878 298.841 83.3867 299.214 83.76C299.587 84.1333 300.059 84.32 300.628 84.32C301.375 84.32 301.939 83.9747 302.322 83.284L304.016 84.208C303.745 84.8053 303.311 85.272 302.714 85.608C302.126 85.944 301.435 86.112 300.642 86.112ZM311.422 78.048H308.286V76.2H316.826V78.048H313.69V86H311.422V78.048ZM324.505 82.262C324.505 82.29 324.491 82.486 324.463 82.85H318.765C318.868 83.3167 319.11 83.6853 319.493 83.956C319.876 84.2267 320.352 84.362 320.921 84.362C321.313 84.362 321.658 84.306 321.957 84.194C322.265 84.0727 322.55 83.886 322.811 83.634L323.973 84.894C323.264 85.706 322.228 86.112 320.865 86.112C320.016 86.112 319.264 85.9487 318.611 85.622C317.958 85.286 317.454 84.824 317.099 84.236C316.744 83.648 316.567 82.9807 316.567 82.234C316.567 81.4967 316.74 80.834 317.085 80.246C317.44 79.6487 317.92 79.1867 318.527 78.86C319.143 78.524 319.829 78.356 320.585 78.356C321.322 78.356 321.99 78.5147 322.587 78.832C323.184 79.1493 323.651 79.6067 323.987 80.204C324.332 80.792 324.505 81.478 324.505 82.262ZM320.599 80.008C320.104 80.008 319.689 80.148 319.353 80.428C319.017 80.708 318.812 81.0907 318.737 81.576H322.447C322.372 81.1 322.167 80.722 321.831 80.442C321.495 80.1527 321.084 80.008 320.599 80.008ZM333.337 82.262C333.337 82.29 333.323 82.486 333.295 82.85H327.597C327.7 83.3167 327.943 83.6853 328.325 83.956C328.708 84.2267 329.184 84.362 329.753 84.362C330.145 84.362 330.491 84.306 330.789 84.194C331.097 84.0727 331.382 83.886 331.643 83.634L332.805 84.894C332.096 85.706 331.06 86.112 329.697 86.112C328.848 86.112 328.097 85.9487 327.443 85.622C326.79 85.286 326.286 84.824 325.931 84.236C325.577 83.648 325.399 82.9807 325.399 82.234C325.399 81.4967 325.572 80.834 325.917 80.246C326.272 79.6487 326.753 79.1867 327.359 78.86C327.975 78.524 328.661 78.356 329.417 78.356C330.155 78.356 330.822 78.5147 331.419 78.832C332.017 79.1493 332.483 79.6067 332.819 80.204C333.165 80.792 333.337 81.478 333.337 82.262ZM329.431 80.008C328.937 80.008 328.521 80.148 328.185 80.428C327.849 80.708 327.644 81.0907 327.569 81.576H331.279C331.205 81.1 330.999 80.722 330.663 80.442C330.327 80.1527 329.917 80.008 329.431 80.008ZM337.325 86.112C336.7 86.112 336.089 86.0373 335.491 85.888C334.894 85.7293 334.418 85.5333 334.063 85.3L334.791 83.732C335.127 83.9467 335.533 84.124 336.009 84.264C336.485 84.3947 336.952 84.46 337.409 84.46C338.333 84.46 338.795 84.2313 338.795 83.774C338.795 83.5593 338.669 83.4053 338.417 83.312C338.165 83.2187 337.778 83.1393 337.255 83.074C336.639 82.9807 336.131 82.8733 335.729 82.752C335.328 82.6307 334.978 82.416 334.679 82.108C334.39 81.8 334.245 81.3613 334.245 80.792C334.245 80.316 334.381 79.896 334.651 79.532C334.931 79.1587 335.333 78.8693 335.855 78.664C336.387 78.4587 337.013 78.356 337.731 78.356C338.263 78.356 338.791 78.4167 339.313 78.538C339.845 78.65 340.284 78.8087 340.629 79.014L339.901 80.568C339.239 80.1947 338.515 80.008 337.731 80.008C337.265 80.008 336.915 80.0733 336.681 80.204C336.448 80.3347 336.331 80.5027 336.331 80.708C336.331 80.9413 336.457 81.1047 336.709 81.198C336.961 81.2913 337.363 81.38 337.913 81.464C338.529 81.5667 339.033 81.6787 339.425 81.8C339.817 81.912 340.158 82.122 340.447 82.43C340.737 82.738 340.881 83.1673 340.881 83.718C340.881 84.1847 340.741 84.6 340.461 84.964C340.181 85.328 339.771 85.6127 339.229 85.818C338.697 86.014 338.063 86.112 337.325 86.112Z" fill="black"/>
<path d="M267.172 100.648C267.62 100.552 268.032 100.504 268.408 100.504C268.856 100.504 269.252 100.57 269.596 100.702C269.94 100.834 270.226 101.016 270.454 101.248C270.686 101.48 270.86 101.754 270.976 102.07C271.096 102.386 271.156 102.73 271.156 103.102C271.156 103.558 271.076 103.97 270.916 104.338C270.76 104.706 270.542 105.022 270.262 105.286C269.986 105.546 269.66 105.746 269.284 105.886C268.908 106.026 268.502 106.096 268.066 106.096C267.814 106.096 267.572 106.07 267.34 106.018C267.108 105.97 266.89 105.904 266.686 105.82C266.486 105.736 266.3 105.64 266.128 105.532C265.956 105.424 265.804 105.31 265.672 105.19L266.002 104.734C266.074 104.63 266.168 104.578 266.284 104.578C266.364 104.578 266.454 104.61 266.554 104.674C266.654 104.734 266.776 104.802 266.92 104.878C267.064 104.954 267.232 105.024 267.424 105.088C267.62 105.148 267.852 105.178 268.12 105.178C268.42 105.178 268.69 105.13 268.93 105.034C269.17 104.938 269.376 104.802 269.548 104.626C269.72 104.446 269.852 104.232 269.944 103.984C270.036 103.736 270.082 103.458 270.082 103.15C270.082 102.882 270.042 102.64 269.962 102.424C269.886 102.208 269.768 102.024 269.608 101.872C269.452 101.72 269.256 101.602 269.02 101.518C268.784 101.434 268.508 101.392 268.192 101.392C267.976 101.392 267.75 101.41 267.514 101.446C267.282 101.482 267.044 101.54 266.8 101.62L266.128 101.422L266.818 97.402H270.892V97.87C270.892 98.022 270.844 98.148 270.748 98.248C270.656 98.344 270.496 98.392 270.268 98.392H267.568L267.172 100.648ZM274.133 100.648C274.581 100.552 274.993 100.504 275.369 100.504C275.817 100.504 276.213 100.57 276.557 100.702C276.901 100.834 277.187 101.016 277.415 101.248C277.647 101.48 277.821 101.754 277.937 102.07C278.057 102.386 278.117 102.73 278.117 103.102C278.117 103.558 278.037 103.97 277.877 104.338C277.721 104.706 277.503 105.022 277.223 105.286C276.947 105.546 276.621 105.746 276.245 105.886C275.869 106.026 275.463 106.096 275.027 106.096C274.775 106.096 274.533 106.07 274.301 106.018C274.069 105.97 273.851 105.904 273.647 105.82C273.447 105.736 273.261 105.64 273.089 105.532C272.917 105.424 272.765 105.31 272.633 105.19L272.963 104.734C273.035 104.63 273.129 104.578 273.245 104.578C273.325 104.578 273.415 104.61 273.515 104.674C273.615 104.734 273.737 104.802 273.881 104.878C274.025 104.954 274.193 105.024 274.385 105.088C274.581 105.148 274.813 105.178 275.081 105.178C275.381 105.178 275.651 105.13 275.891 105.034C276.131 104.938 276.337 104.802 276.509 104.626C276.681 104.446 276.813 104.232 276.905 103.984C276.997 103.736 277.043 103.458 277.043 103.15C277.043 102.882 277.003 102.64 276.923 102.424C276.847 102.208 276.729 102.024 276.569 101.872C276.413 101.72 276.217 101.602 275.981 101.518C275.745 101.434 275.469 101.392 275.153 101.392C274.937 101.392 274.711 101.41 274.475 101.446C274.243 101.482 274.005 101.54 273.761 101.62L273.089 101.422L273.779 97.402H277.853V97.87C277.853 98.022 277.805 98.148 277.709 98.248C277.617 98.344 277.457 98.392 277.229 98.392H274.529L274.133 100.648ZM283.254 99.478C283.254 99.814 283.202 100.116 283.098 100.384C282.994 100.648 282.854 100.872 282.678 101.056C282.506 101.236 282.304 101.374 282.072 101.47C281.844 101.566 281.602 101.614 281.346 101.614C281.078 101.614 280.828 101.566 280.596 101.47C280.364 101.374 280.162 101.236 279.99 101.056C279.822 100.872 279.69 100.648 279.594 100.384C279.498 100.116 279.45 99.814 279.45 99.478C279.45 99.134 279.498 98.828 279.594 98.56C279.69 98.292 279.822 98.066 279.99 97.882C280.162 97.698 280.364 97.558 280.596 97.462C280.828 97.366 281.078 97.318 281.346 97.318C281.618 97.318 281.87 97.366 282.102 97.462C282.334 97.558 282.536 97.698 282.708 97.882C282.88 98.066 283.014 98.292 283.11 98.56C283.206 98.828 283.254 99.134 283.254 99.478ZM282.426 99.478C282.426 99.214 282.398 98.99 282.342 98.806C282.286 98.622 282.208 98.472 282.108 98.356C282.012 98.236 281.898 98.15 281.766 98.098C281.634 98.046 281.494 98.02 281.346 98.02C281.198 98.02 281.06 98.046 280.932 98.098C280.804 98.15 280.692 98.236 280.596 98.356C280.5 98.472 280.424 98.622 280.368 98.806C280.312 98.99 280.284 99.214 280.284 99.478C280.284 99.738 280.312 99.96 280.368 100.144C280.424 100.324 280.5 100.472 280.596 100.588C280.692 100.7 280.804 100.782 280.932 100.834C281.06 100.882 281.198 100.906 281.346 100.906C281.494 100.906 281.634 100.882 281.766 100.834C281.898 100.782 282.012 100.7 282.108 100.588C282.208 100.472 282.286 100.324 282.342 100.144C282.398 99.96 282.426 99.738 282.426 99.478ZM286.296 97.582C286.336 97.534 286.382 97.492 286.434 97.456C286.49 97.42 286.564 97.402 286.656 97.402H287.43L281.142 105.826C281.106 105.878 281.06 105.92 281.004 105.952C280.948 105.984 280.88 106 280.8 106H280.014L286.296 97.582ZM288.012 103.972C288.012 104.308 287.96 104.608 287.856 104.872C287.752 105.136 287.612 105.36 287.436 105.544C287.264 105.724 287.062 105.862 286.83 105.958C286.602 106.054 286.36 106.102 286.104 106.102C285.832 106.102 285.58 106.054 285.348 105.958C285.12 105.862 284.92 105.724 284.748 105.544C284.58 105.36 284.448 105.136 284.352 104.872C284.256 104.608 284.208 104.308 284.208 103.972C284.208 103.628 284.256 103.322 284.352 103.054C284.448 102.782 284.58 102.554 284.748 102.37C284.92 102.186 285.12 102.046 285.348 101.95C285.58 101.854 285.832 101.806 286.104 101.806C286.372 101.806 286.622 101.854 286.854 101.95C287.09 102.046 287.292 102.186 287.46 102.37C287.632 102.554 287.766 102.782 287.862 103.054C287.962 103.322 288.012 103.628 288.012 103.972ZM287.184 103.972C287.184 103.708 287.156 103.484 287.1 103.3C287.044 103.112 286.966 102.96 286.866 102.844C286.77 102.728 286.656 102.644 286.524 102.592C286.392 102.54 286.252 102.514 286.104 102.514C285.956 102.514 285.816 102.54 285.684 102.592C285.556 102.644 285.444 102.728 285.348 102.844C285.252 102.96 285.176 103.112 285.12 103.3C285.068 103.484 285.042 103.708 285.042 103.972C285.042 104.232 285.068 104.452 285.12 104.632C285.176 104.812 285.252 104.96 285.348 105.076C285.444 105.188 285.556 105.27 285.684 105.322C285.816 105.37 285.956 105.394 286.104 105.394C286.252 105.394 286.392 105.37 286.524 105.322C286.656 105.27 286.77 105.188 286.866 105.076C286.966 104.96 287.044 104.812 287.1 104.632C287.156 104.452 287.184 104.232 287.184 103.972Z" fill="#858585"/>
<path d="M337.092 34.6V43H336.24V36.28L332.94 41.932H332.52L329.22 36.316V43H328.368V34.6H329.1L332.748 40.828L336.36 34.6H337.092ZM341.857 36.64C342.681 36.64 343.313 36.848 343.753 37.264C344.193 37.672 344.413 38.28 344.413 39.088V43H343.597V42.016C343.405 42.344 343.121 42.6 342.745 42.784C342.377 42.968 341.937 43.06 341.425 43.06C340.721 43.06 340.161 42.892 339.745 42.556C339.329 42.22 339.121 41.776 339.121 41.224C339.121 40.688 339.313 40.256 339.697 39.928C340.089 39.6 340.709 39.436 341.557 39.436H343.561V39.052C343.561 38.508 343.409 38.096 343.105 37.816C342.801 37.528 342.357 37.384 341.773 37.384C341.373 37.384 340.989 37.452 340.621 37.588C340.253 37.716 339.937 37.896 339.673 38.128L339.289 37.492C339.609 37.22 339.993 37.012 340.441 36.868C340.889 36.716 341.361 36.64 341.857 36.64ZM341.557 42.388C342.037 42.388 342.449 42.28 342.793 42.064C343.137 41.84 343.393 41.52 343.561 41.104V40.072H341.581C340.501 40.072 339.961 40.448 339.961 41.2C339.961 41.568 340.101 41.86 340.381 42.076C340.661 42.284 341.053 42.388 341.557 42.388ZM351.914 36.688L348.758 43.756C348.502 44.348 348.206 44.768 347.87 45.016C347.534 45.264 347.13 45.388 346.658 45.388C346.354 45.388 346.07 45.34 345.806 45.244C345.542 45.148 345.314 45.004 345.122 44.812L345.518 44.176C345.838 44.496 346.222 44.656 346.67 44.656C346.958 44.656 347.202 44.576 347.402 44.416C347.61 44.256 347.802 43.984 347.978 43.6L348.254 42.988L345.434 36.688H346.322L348.698 42.052L351.074 36.688H351.914ZM355.786 39.376H358.93V40.12H355.786V39.376ZM365.057 43.072C364.577 43.072 364.133 42.968 363.725 42.76C363.317 42.552 362.985 42.256 362.729 41.872L363.257 41.272C363.721 41.96 364.325 42.304 365.069 42.304C366.109 42.304 366.629 41.688 366.629 40.456V35.368H363.557V34.6H367.505V40.42C367.505 41.3 367.297 41.964 366.881 42.412C366.473 42.852 365.865 43.072 365.057 43.072ZM375.677 36.688V43H374.861V41.848C374.637 42.232 374.329 42.532 373.937 42.748C373.545 42.956 373.097 43.06 372.593 43.06C371.769 43.06 371.117 42.832 370.637 42.376C370.165 41.912 369.929 41.236 369.929 40.348V36.688H370.781V40.264C370.781 40.928 370.945 41.432 371.273 41.776C371.601 42.12 372.069 42.292 372.677 42.292C373.341 42.292 373.865 42.092 374.249 41.692C374.633 41.284 374.825 40.72 374.825 40V36.688H375.677ZM381.279 36.64C382.071 36.64 382.699 36.872 383.163 37.336C383.635 37.792 383.871 38.46 383.871 39.34V43H383.019V39.424C383.019 38.768 382.855 38.268 382.527 37.924C382.199 37.58 381.731 37.408 381.123 37.408C380.443 37.408 379.903 37.612 379.503 38.02C379.111 38.42 378.915 38.976 378.915 39.688V43H378.063V36.688H378.879V37.852C379.111 37.468 379.431 37.172 379.839 36.964C380.255 36.748 380.735 36.64 381.279 36.64ZM391.704 40.108H386.424C386.472 40.764 386.724 41.296 387.18 41.704C387.636 42.104 388.212 42.304 388.908 42.304C389.3 42.304 389.66 42.236 389.988 42.1C390.316 41.956 390.6 41.748 390.84 41.476L391.32 42.028C391.04 42.364 390.688 42.62 390.264 42.796C389.848 42.972 389.388 43.06 388.884 43.06C388.236 43.06 387.66 42.924 387.156 42.652C386.66 42.372 386.272 41.988 385.992 41.5C385.712 41.012 385.572 40.46 385.572 39.844C385.572 39.228 385.704 38.676 385.968 38.188C386.24 37.7 386.608 37.32 387.072 37.048C387.544 36.776 388.072 36.64 388.656 36.64C389.24 36.64 389.764 36.776 390.228 37.048C390.692 37.32 391.056 37.7 391.32 38.188C391.584 38.668 391.716 39.22 391.716 39.844L391.704 40.108ZM388.656 37.372C388.048 37.372 387.536 37.568 387.12 37.96C386.712 38.344 386.48 38.848 386.424 39.472H390.9C390.844 38.848 390.608 38.344 390.192 37.96C389.784 37.568 389.272 37.372 388.656 37.372ZM401.762 42.232V43H395.87V42.388L399.362 38.968C399.802 38.536 400.098 38.164 400.25 37.852C400.41 37.532 400.49 37.212 400.49 36.892C400.49 36.396 400.318 36.012 399.974 35.74C399.638 35.46 399.154 35.32 398.522 35.32C397.538 35.32 396.774 35.632 396.23 36.256L395.618 35.728C395.946 35.344 396.362 35.048 396.866 34.84C397.378 34.632 397.954 34.528 398.594 34.528C399.45 34.528 400.126 34.732 400.622 35.14C401.126 35.54 401.378 36.092 401.378 36.796C401.378 37.228 401.282 37.644 401.09 38.044C400.898 38.444 400.534 38.904 399.998 39.424L397.142 42.232H401.762ZM406.148 43.072C405.5 43.072 404.92 42.9 404.408 42.556C403.904 42.212 403.508 41.72 403.22 41.08C402.94 40.432 402.8 39.672 402.8 38.8C402.8 37.928 402.94 37.172 403.22 36.532C403.508 35.884 403.904 35.388 404.408 35.044C404.92 34.7 405.5 34.528 406.148 34.528C406.796 34.528 407.372 34.7 407.876 35.044C408.388 35.388 408.788 35.884 409.076 36.532C409.364 37.172 409.508 37.928 409.508 38.8C409.508 39.672 409.364 40.432 409.076 41.08C408.788 41.72 408.388 42.212 407.876 42.556C407.372 42.9 406.796 43.072 406.148 43.072ZM406.148 42.28C406.636 42.28 407.064 42.144 407.432 41.872C407.808 41.6 408.1 41.204 408.308 40.684C408.516 40.164 408.62 39.536 408.62 38.8C408.62 38.064 408.516 37.436 408.308 36.916C408.1 36.396 407.808 36 407.432 35.728C407.064 35.456 406.636 35.32 406.148 35.32C405.66 35.32 405.228 35.456 404.852 35.728C404.484 36 404.196 36.396 403.988 36.916C403.78 37.436 403.676 38.064 403.676 38.8C403.676 39.536 403.78 40.164 403.988 40.684C404.196 41.204 404.484 41.6 404.852 41.872C405.228 42.144 405.66 42.28 406.148 42.28ZM416.458 42.232V43H410.566V42.388L414.058 38.968C414.498 38.536 414.794 38.164 414.946 37.852C415.106 37.532 415.186 37.212 415.186 36.892C415.186 36.396 415.014 36.012 414.67 35.74C414.334 35.46 413.85 35.32 413.218 35.32C412.234 35.32 411.47 35.632 410.926 36.256L410.314 35.728C410.642 35.344 411.058 35.048 411.562 34.84C412.074 34.632 412.65 34.528 413.29 34.528C414.146 34.528 414.822 34.732 415.318 35.14C415.822 35.54 416.074 36.092 416.074 36.796C416.074 37.228 415.978 37.644 415.786 38.044C415.594 38.444 415.23 38.904 414.694 39.424L411.838 42.232H416.458ZM419.87 34.6V43H419.006V35.368H417.026V34.6H419.87Z" fill="#858585"/>
<path d="M429.219 37.2557C429.519 36.9278 429.938 36.902 430.306 37.2557L433.001 40.0111L435.696 37.2557C436.064 36.902 436.483 36.9278 436.782 37.2557C437.082 37.583 437.063 38.1359 436.782 38.4433C436.502 38.7507 433.544 41.7539 433.544 41.7539C433.473 41.8317 433.389 41.8936 433.295 41.9359C433.202 41.9782 433.102 42 433 42C432.899 42 432.798 41.9782 432.705 41.9359C432.612 41.8936 432.527 41.8317 432.457 41.7539C432.457 41.7539 429.5 38.7507 429.219 38.4433C428.937 38.1359 428.918 37.583 429.219 37.2557Z" fill="#858585"/>
<circle cx="249.5" cy="137.5" r="5.5" fill="#F6DC7D"/>
<path d="M270.852 143.168C269.853 143.168 268.948 142.953 268.136 142.524C267.333 142.085 266.699 141.483 266.232 140.718C265.775 139.943 265.546 139.071 265.546 138.1C265.546 137.129 265.775 136.261 266.232 135.496C266.699 134.721 267.333 134.119 268.136 133.69C268.948 133.251 269.858 133.032 270.866 133.032C271.715 133.032 272.481 133.181 273.162 133.48C273.853 133.779 274.431 134.208 274.898 134.768L273.442 136.112C272.779 135.347 271.958 134.964 270.978 134.964C270.371 134.964 269.83 135.099 269.354 135.37C268.878 135.631 268.505 136 268.234 136.476C267.973 136.952 267.842 137.493 267.842 138.1C267.842 138.707 267.973 139.248 268.234 139.724C268.505 140.2 268.878 140.573 269.354 140.844C269.83 141.105 270.371 141.236 270.978 141.236C271.958 141.236 272.779 140.849 273.442 140.074L274.898 141.418C274.431 141.987 273.853 142.421 273.162 142.72C272.471 143.019 271.701 143.168 270.852 143.168ZM283.672 135.468V143H281.6V142.104C281.311 142.431 280.966 142.683 280.564 142.86C280.163 143.028 279.729 143.112 279.262 143.112C278.273 143.112 277.489 142.827 276.91 142.258C276.332 141.689 276.042 140.844 276.042 139.724V135.468H278.226V139.402C278.226 140.615 278.735 141.222 279.752 141.222C280.275 141.222 280.695 141.054 281.012 140.718C281.33 140.373 281.488 139.864 281.488 139.192V135.468H283.672ZM288.23 143.112C287.604 143.112 286.993 143.037 286.396 142.888C285.798 142.729 285.322 142.533 284.968 142.3L285.696 140.732C286.032 140.947 286.438 141.124 286.914 141.264C287.39 141.395 287.856 141.46 288.314 141.46C289.238 141.46 289.7 141.231 289.7 140.774C289.7 140.559 289.574 140.405 289.322 140.312C289.07 140.219 288.682 140.139 288.16 140.074C287.544 139.981 287.035 139.873 286.634 139.752C286.232 139.631 285.882 139.416 285.584 139.108C285.294 138.8 285.149 138.361 285.149 137.792C285.149 137.316 285.285 136.896 285.556 136.532C285.836 136.159 286.237 135.869 286.76 135.664C287.292 135.459 287.917 135.356 288.636 135.356C289.168 135.356 289.695 135.417 290.218 135.538C290.75 135.65 291.188 135.809 291.534 136.014L290.806 137.568C290.143 137.195 289.42 137.008 288.636 137.008C288.169 137.008 287.819 137.073 287.586 137.204C287.352 137.335 287.236 137.503 287.236 137.708C287.236 137.941 287.362 138.105 287.614 138.198C287.866 138.291 288.267 138.38 288.818 138.464C289.434 138.567 289.938 138.679 290.33 138.8C290.722 138.912 291.062 139.122 291.352 139.43C291.641 139.738 291.786 140.167 291.786 140.718C291.786 141.185 291.646 141.6 291.366 141.964C291.086 142.328 290.675 142.613 290.134 142.818C289.602 143.014 288.967 143.112 288.23 143.112ZM297.991 142.636C297.776 142.795 297.51 142.916 297.193 143C296.885 143.075 296.558 143.112 296.213 143.112C295.317 143.112 294.622 142.883 294.127 142.426C293.642 141.969 293.399 141.297 293.399 140.41V137.316H292.237V135.636H293.399V133.802H295.583V135.636H297.459V137.316H295.583V140.382C295.583 140.699 295.662 140.947 295.821 141.124C295.989 141.292 296.222 141.376 296.521 141.376C296.866 141.376 297.16 141.283 297.403 141.096L297.991 142.636ZM302.569 143.112C301.775 143.112 301.061 142.949 300.427 142.622C299.801 142.286 299.311 141.824 298.957 141.236C298.602 140.648 298.425 139.981 298.425 139.234C298.425 138.487 298.602 137.82 298.957 137.232C299.311 136.644 299.801 136.187 300.427 135.86C301.061 135.524 301.775 135.356 302.569 135.356C303.362 135.356 304.071 135.524 304.697 135.86C305.322 136.187 305.812 136.644 306.167 137.232C306.521 137.82 306.699 138.487 306.699 139.234C306.699 139.981 306.521 140.648 306.167 141.236C305.812 141.824 305.322 142.286 304.697 142.622C304.071 142.949 303.362 143.112 302.569 143.112ZM302.569 141.32C303.129 141.32 303.586 141.133 303.941 140.76C304.305 140.377 304.487 139.869 304.487 139.234C304.487 138.599 304.305 138.095 303.941 137.722C303.586 137.339 303.129 137.148 302.569 137.148C302.009 137.148 301.547 137.339 301.183 137.722C300.819 138.095 300.637 138.599 300.637 139.234C300.637 139.869 300.819 140.377 301.183 140.76C301.547 141.133 302.009 141.32 302.569 141.32ZM317.804 135.356C318.747 135.356 319.494 135.636 320.044 136.196C320.604 136.747 320.884 137.577 320.884 138.688V143H318.7V139.024C318.7 138.427 318.574 137.983 318.322 137.694C318.08 137.395 317.73 137.246 317.272 137.246C316.759 137.246 316.353 137.414 316.054 137.75C315.756 138.077 315.606 138.567 315.606 139.22V143H313.422V139.024C313.422 137.839 312.946 137.246 311.994 137.246C311.49 137.246 311.089 137.414 310.79 137.75C310.492 138.077 310.342 138.567 310.342 139.22V143H308.158V135.468H310.244V136.336C310.524 136.019 310.865 135.776 311.266 135.608C311.677 135.44 312.125 135.356 312.61 135.356C313.142 135.356 313.623 135.463 314.052 135.678C314.482 135.883 314.827 136.187 315.088 136.588C315.396 136.196 315.784 135.893 316.25 135.678C316.726 135.463 317.244 135.356 317.804 135.356ZM330.181 143.168C329.406 143.168 328.655 143.065 327.927 142.86C327.208 142.645 326.629 142.37 326.191 142.034L326.961 140.326C327.381 140.634 327.88 140.881 328.459 141.068C329.037 141.255 329.616 141.348 330.195 141.348C330.839 141.348 331.315 141.255 331.623 141.068C331.931 140.872 332.085 140.615 332.085 140.298C332.085 140.065 331.991 139.873 331.805 139.724C331.627 139.565 331.394 139.439 331.105 139.346C330.825 139.253 330.442 139.15 329.957 139.038C329.21 138.861 328.599 138.683 328.123 138.506C327.647 138.329 327.236 138.044 326.891 137.652C326.555 137.26 326.387 136.737 326.387 136.084C326.387 135.515 326.541 135.001 326.849 134.544C327.157 134.077 327.619 133.709 328.235 133.438C328.86 133.167 329.621 133.032 330.517 133.032C331.142 133.032 331.753 133.107 332.351 133.256C332.948 133.405 333.471 133.62 333.919 133.9L333.219 135.622C332.313 135.109 331.408 134.852 330.503 134.852C329.868 134.852 329.397 134.955 329.089 135.16C328.79 135.365 328.641 135.636 328.641 135.972C328.641 136.308 328.813 136.56 329.159 136.728C329.513 136.887 330.05 137.045 330.769 137.204C331.515 137.381 332.127 137.559 332.603 137.736C333.079 137.913 333.485 138.193 333.821 138.576C334.166 138.959 334.339 139.477 334.339 140.13C334.339 140.69 334.18 141.203 333.863 141.67C333.555 142.127 333.088 142.491 332.463 142.762C331.837 143.033 331.077 143.168 330.181 143.168ZM340.313 135.356C341.246 135.356 341.997 135.636 342.567 136.196C343.145 136.756 343.435 137.587 343.435 138.688V143H341.251V139.024C341.251 138.427 341.12 137.983 340.859 137.694C340.597 137.395 340.219 137.246 339.725 137.246C339.174 137.246 338.735 137.419 338.409 137.764C338.082 138.1 337.919 138.604 337.919 139.276V143H335.735V132.612H337.919V136.252C338.208 135.963 338.558 135.743 338.969 135.594C339.379 135.435 339.827 135.356 340.313 135.356ZM349.08 143.112C348.287 143.112 347.573 142.949 346.938 142.622C346.313 142.286 345.823 141.824 345.468 141.236C345.114 140.648 344.936 139.981 344.936 139.234C344.936 138.487 345.114 137.82 345.468 137.232C345.823 136.644 346.313 136.187 346.938 135.86C347.573 135.524 348.287 135.356 349.08 135.356C349.874 135.356 350.583 135.524 351.208 135.86C351.834 136.187 352.324 136.644 352.678 137.232C353.033 137.82 353.21 138.487 353.21 139.234C353.21 139.981 353.033 140.648 352.678 141.236C352.324 141.824 351.834 142.286 351.208 142.622C350.583 142.949 349.874 143.112 349.08 143.112ZM349.08 141.32C349.64 141.32 350.098 141.133 350.452 140.76C350.816 140.377 350.998 139.869 350.998 139.234C350.998 138.599 350.816 138.095 350.452 137.722C350.098 137.339 349.64 137.148 349.08 137.148C348.52 137.148 348.058 137.339 347.694 137.722C347.33 138.095 347.148 138.599 347.148 139.234C347.148 139.869 347.33 140.377 347.694 140.76C348.058 141.133 348.52 141.32 349.08 141.32ZM356.756 136.462C357.017 136.098 357.367 135.823 357.806 135.636C358.254 135.449 358.767 135.356 359.346 135.356V137.372C359.103 137.353 358.94 137.344 358.856 137.344C358.231 137.344 357.741 137.521 357.386 137.876C357.031 138.221 356.854 138.744 356.854 139.444V143H354.67V135.468H356.756V136.462ZM365.762 142.636C365.548 142.795 365.282 142.916 364.964 143C364.656 143.075 364.33 143.112 363.984 143.112C363.088 143.112 362.393 142.883 361.898 142.426C361.413 141.969 361.17 141.297 361.17 140.41V137.316H360.008V135.636H361.17V133.802H363.354V135.636H365.23V137.316H363.354V140.382C363.354 140.699 363.434 140.947 363.592 141.124C363.76 141.292 363.994 141.376 364.292 141.376C364.638 141.376 364.932 141.283 365.174 141.096L365.762 142.636ZM375.349 133.2C376.217 133.2 376.969 133.345 377.603 133.634C378.247 133.923 378.742 134.334 379.087 134.866C379.433 135.398 379.605 136.028 379.605 136.756C379.605 137.475 379.433 138.105 379.087 138.646C378.742 139.178 378.247 139.589 377.603 139.878C376.969 140.158 376.217 140.298 375.349 140.298H373.375V143H371.107V133.2H375.349ZM375.223 138.45C375.905 138.45 376.423 138.305 376.777 138.016C377.132 137.717 377.309 137.297 377.309 136.756C377.309 136.205 377.132 135.785 376.777 135.496C376.423 135.197 375.905 135.048 375.223 135.048H373.375V138.45H375.223ZM384.04 135.356C385.207 135.356 386.103 135.636 386.728 136.196C387.353 136.747 387.666 137.582 387.666 138.702V143H385.622V142.062C385.211 142.762 384.446 143.112 383.326 143.112C382.747 143.112 382.243 143.014 381.814 142.818C381.394 142.622 381.072 142.351 380.848 142.006C380.624 141.661 380.512 141.269 380.512 140.83C380.512 140.13 380.773 139.579 381.296 139.178C381.828 138.777 382.645 138.576 383.746 138.576H385.482C385.482 138.1 385.337 137.736 385.048 137.484C384.759 137.223 384.325 137.092 383.746 137.092C383.345 137.092 382.948 137.157 382.556 137.288C382.173 137.409 381.847 137.577 381.576 137.792L380.792 136.266C381.203 135.977 381.693 135.753 382.262 135.594C382.841 135.435 383.433 135.356 384.04 135.356ZM383.872 141.642C384.245 141.642 384.577 141.558 384.866 141.39C385.155 141.213 385.361 140.956 385.482 140.62V139.85H383.984C383.088 139.85 382.64 140.144 382.64 140.732C382.64 141.012 382.747 141.236 382.962 141.404C383.186 141.563 383.489 141.642 383.872 141.642ZM394.221 135.356C395.154 135.356 395.905 135.636 396.475 136.196C397.053 136.756 397.343 137.587 397.343 138.688V143H395.159V139.024C395.159 138.427 395.028 137.983 394.767 137.694C394.505 137.395 394.127 137.246 393.633 137.246C393.082 137.246 392.643 137.419 392.317 137.764C391.99 138.1 391.827 138.604 391.827 139.276V143H389.643V135.468H391.729V136.35C392.018 136.033 392.377 135.79 392.807 135.622C393.236 135.445 393.707 135.356 394.221 135.356ZM404.18 142.636C403.966 142.795 403.7 142.916 403.382 143C403.074 143.075 402.748 143.112 402.402 143.112C401.506 143.112 400.811 142.883 400.316 142.426C399.831 141.969 399.588 141.297 399.588 140.41V137.316H398.426V135.636H399.588V133.802H401.772V135.636H403.648V137.316H401.772V140.382C401.772 140.699 401.852 140.947 402.01 141.124C402.178 141.292 402.412 141.376 402.71 141.376C403.056 141.376 403.35 141.283 403.592 141.096L404.18 142.636ZM407.94 143.112C407.315 143.112 406.704 143.037 406.106 142.888C405.509 142.729 405.033 142.533 404.678 142.3L405.406 140.732C405.742 140.947 406.148 141.124 406.624 141.264C407.1 141.395 407.567 141.46 408.024 141.46C408.948 141.46 409.41 141.231 409.41 140.774C409.41 140.559 409.284 140.405 409.032 140.312C408.78 140.219 408.393 140.139 407.87 140.074C407.254 139.981 406.746 139.873 406.344 139.752C405.943 139.631 405.593 139.416 405.294 139.108C405.005 138.8 404.86 138.361 404.86 137.792C404.86 137.316 404.996 136.896 405.266 136.532C405.546 136.159 405.948 135.869 406.47 135.664C407.002 135.459 407.628 135.356 408.346 135.356C408.878 135.356 409.406 135.417 409.928 135.538C410.46 135.65 410.899 135.809 411.244 136.014L410.516 137.568C409.854 137.195 409.13 137.008 408.346 137.008C407.88 137.008 407.53 137.073 407.296 137.204C407.063 137.335 406.946 137.503 406.946 137.708C406.946 137.941 407.072 138.105 407.324 138.198C407.576 138.291 407.978 138.38 408.528 138.464C409.144 138.567 409.648 138.679 410.04 138.8C410.432 138.912 410.773 139.122 411.062 139.43C411.352 139.738 411.496 140.167 411.496 140.718C411.496 141.185 411.356 141.6 411.076 141.964C410.796 142.328 410.386 142.613 409.844 142.818C409.312 143.014 408.678 143.112 407.94 143.112Z" fill="black"/>
<path d="M265.78 156.73C265.836 156.338 265.944 155.992 266.104 155.692C266.264 155.388 266.466 155.134 266.71 154.93C266.958 154.726 267.24 154.572 267.556 154.468C267.876 154.36 268.22 154.306 268.588 154.306C268.952 154.306 269.288 154.358 269.596 154.462C269.904 154.566 270.168 154.714 270.388 154.906C270.612 155.098 270.786 155.33 270.91 155.602C271.034 155.874 271.096 156.176 271.096 156.508C271.096 156.78 271.06 157.024 270.988 157.24C270.92 157.452 270.82 157.638 270.688 157.798C270.56 157.958 270.404 158.094 270.22 158.206C270.036 158.318 269.83 158.41 269.602 158.482C270.162 158.626 270.582 158.874 270.862 159.226C271.146 159.574 271.288 160.01 271.288 160.534C271.288 160.93 271.212 161.286 271.06 161.602C270.912 161.918 270.708 162.188 270.448 162.412C270.188 162.632 269.884 162.802 269.536 162.922C269.192 163.038 268.822 163.096 268.426 163.096C267.97 163.096 267.58 163.04 267.256 162.928C266.932 162.812 266.658 162.654 266.434 162.454C266.21 162.254 266.026 162.018 265.882 161.746C265.738 161.47 265.616 161.172 265.516 160.852L265.978 160.66C266.098 160.608 266.214 160.594 266.326 160.618C266.442 160.642 266.526 160.708 266.578 160.816C266.63 160.928 266.694 161.062 266.77 161.218C266.85 161.374 266.958 161.524 267.094 161.668C267.23 161.812 267.402 161.934 267.61 162.034C267.822 162.134 268.09 162.184 268.414 162.184C268.714 162.184 268.976 162.136 269.2 162.04C269.428 161.94 269.616 161.812 269.764 161.656C269.916 161.5 270.03 161.326 270.106 161.134C270.182 160.942 270.22 160.752 270.22 160.564C270.22 160.332 270.19 160.12 270.13 159.928C270.07 159.736 269.958 159.57 269.794 159.43C269.63 159.29 269.404 159.18 269.116 159.1C268.832 159.02 268.466 158.98 268.018 158.98V158.206C268.386 158.202 268.698 158.162 268.954 158.086C269.214 158.01 269.424 157.906 269.584 157.774C269.748 157.642 269.866 157.484 269.938 157.3C270.014 157.116 270.052 156.912 270.052 156.688C270.052 156.44 270.012 156.224 269.932 156.04C269.856 155.856 269.75 155.704 269.614 155.584C269.478 155.464 269.316 155.374 269.128 155.314C268.944 155.254 268.744 155.224 268.528 155.224C268.312 155.224 268.11 155.256 267.922 155.32C267.738 155.384 267.574 155.474 267.43 155.59C267.29 155.702 267.172 155.836 267.076 155.992C266.98 156.148 266.912 156.32 266.872 156.508C266.82 156.648 266.754 156.742 266.674 156.79C266.598 156.834 266.486 156.846 266.338 156.826L265.78 156.73ZM278.069 162.184V163H273.461V162.184H275.303V156.322C275.303 156.146 275.309 155.968 275.321 155.788L273.791 157.102C273.739 157.146 273.687 157.174 273.635 157.186C273.583 157.194 273.535 157.194 273.491 157.186C273.447 157.178 273.405 157.162 273.365 157.138C273.329 157.114 273.301 157.088 273.281 157.06L272.945 156.598L275.507 154.384H276.377V162.184H278.069ZM283.254 156.478C283.254 156.814 283.202 157.116 283.098 157.384C282.994 157.648 282.854 157.872 282.678 158.056C282.506 158.236 282.304 158.374 282.072 158.47C281.844 158.566 281.602 158.614 281.346 158.614C281.078 158.614 280.828 158.566 280.596 158.47C280.364 158.374 280.162 158.236 279.99 158.056C279.822 157.872 279.69 157.648 279.594 157.384C279.498 157.116 279.45 156.814 279.45 156.478C279.45 156.134 279.498 155.828 279.594 155.56C279.69 155.292 279.822 155.066 279.99 154.882C280.162 154.698 280.364 154.558 280.596 154.462C280.828 154.366 281.078 154.318 281.346 154.318C281.618 154.318 281.87 154.366 282.102 154.462C282.334 154.558 282.536 154.698 282.708 154.882C282.88 155.066 283.014 155.292 283.11 155.56C283.206 155.828 283.254 156.134 283.254 156.478ZM282.426 156.478C282.426 156.214 282.398 155.99 282.342 155.806C282.286 155.622 282.208 155.472 282.108 155.356C282.012 155.236 281.898 155.15 281.766 155.098C281.634 155.046 281.494 155.02 281.346 155.02C281.198 155.02 281.06 155.046 280.932 155.098C280.804 155.15 280.692 155.236 280.596 155.356C280.5 155.472 280.424 155.622 280.368 155.806C280.312 155.99 280.284 156.214 280.284 156.478C280.284 156.738 280.312 156.96 280.368 157.144C280.424 157.324 280.5 157.472 280.596 157.588C280.692 157.7 280.804 157.782 280.932 157.834C281.06 157.882 281.198 157.906 281.346 157.906C281.494 157.906 281.634 157.882 281.766 157.834C281.898 157.782 282.012 157.7 282.108 157.588C282.208 157.472 282.286 157.324 282.342 157.144C282.398 156.96 282.426 156.738 282.426 156.478ZM286.296 154.582C286.336 154.534 286.382 154.492 286.434 154.456C286.49 154.42 286.564 154.402 286.656 154.402H287.43L281.142 162.826C281.106 162.878 281.06 162.92 281.004 162.952C280.948 162.984 280.88 163 280.8 163H280.014L286.296 154.582ZM288.012 160.972C288.012 161.308 287.96 161.608 287.856 161.872C287.752 162.136 287.612 162.36 287.436 162.544C287.264 162.724 287.062 162.862 286.83 162.958C286.602 163.054 286.36 163.102 286.104 163.102C285.832 163.102 285.58 163.054 285.348 162.958C285.12 162.862 284.92 162.724 284.748 162.544C284.58 162.36 284.448 162.136 284.352 161.872C284.256 161.608 284.208 161.308 284.208 160.972C284.208 160.628 284.256 160.322 284.352 160.054C284.448 159.782 284.58 159.554 284.748 159.37C284.92 159.186 285.12 159.046 285.348 158.95C285.58 158.854 285.832 158.806 286.104 158.806C286.372 158.806 286.622 158.854 286.854 158.95C287.09 159.046 287.292 159.186 287.46 159.37C287.632 159.554 287.766 159.782 287.862 160.054C287.962 160.322 288.012 160.628 288.012 160.972ZM287.184 160.972C287.184 160.708 287.156 160.484 287.1 160.3C287.044 160.112 286.966 159.96 286.866 159.844C286.77 159.728 286.656 159.644 286.524 159.592C286.392 159.54 286.252 159.514 286.104 159.514C285.956 159.514 285.816 159.54 285.684 159.592C285.556 159.644 285.444 159.728 285.348 159.844C285.252 159.96 285.176 160.112 285.12 160.3C285.068 160.484 285.042 160.708 285.042 160.972C285.042 161.232 285.068 161.452 285.12 161.632C285.176 161.812 285.252 161.96 285.348 162.076C285.444 162.188 285.556 162.27 285.684 162.322C285.816 162.37 285.956 162.394 286.104 162.394C286.252 162.394 286.392 162.37 286.524 162.322C286.656 162.27 286.77 162.188 286.866 162.076C286.966 161.96 287.044 161.812 287.1 161.632C287.156 161.452 287.184 161.232 287.184 160.972Z" fill="#858585"/>
<circle cx="249.5" cy="194.5" r="5.5" fill="#EE8484"/>
<path d="M269.382 200.168C268.607 200.168 267.856 200.065 267.128 199.86C266.409 199.645 265.831 199.37 265.392 199.034L266.162 197.326C266.582 197.634 267.081 197.881 267.66 198.068C268.239 198.255 268.817 198.348 269.396 198.348C270.04 198.348 270.516 198.255 270.824 198.068C271.132 197.872 271.286 197.615 271.286 197.298C271.286 197.065 271.193 196.873 271.006 196.724C270.829 196.565 270.595 196.439 270.306 196.346C270.026 196.253 269.643 196.15 269.158 196.038C268.411 195.861 267.8 195.683 267.324 195.506C266.848 195.329 266.437 195.044 266.092 194.652C265.756 194.26 265.588 193.737 265.588 193.084C265.588 192.515 265.742 192.001 266.05 191.544C266.358 191.077 266.82 190.709 267.436 190.438C268.061 190.167 268.822 190.032 269.718 190.032C270.343 190.032 270.955 190.107 271.552 190.256C272.149 190.405 272.672 190.62 273.12 190.9L272.42 192.622C271.515 192.109 270.609 191.852 269.704 191.852C269.069 191.852 268.598 191.955 268.29 192.16C267.991 192.365 267.842 192.636 267.842 192.972C267.842 193.308 268.015 193.56 268.36 193.728C268.715 193.887 269.251 194.045 269.97 194.204C270.717 194.381 271.328 194.559 271.804 194.736C272.28 194.913 272.686 195.193 273.022 195.576C273.367 195.959 273.54 196.477 273.54 197.13C273.54 197.69 273.381 198.203 273.064 198.67C272.756 199.127 272.289 199.491 271.664 199.762C271.039 200.033 270.278 200.168 269.382 200.168ZM282.524 192.468V200H280.452V199.104C280.162 199.431 279.817 199.683 279.416 199.86C279.014 200.028 278.58 200.112 278.114 200.112C277.124 200.112 276.34 199.827 275.762 199.258C275.183 198.689 274.894 197.844 274.894 196.724V192.468H277.078V196.402C277.078 197.615 277.586 198.222 278.604 198.222C279.126 198.222 279.546 198.054 279.864 197.718C280.181 197.373 280.34 196.864 280.34 196.192V192.468H282.524ZM288.999 192.356C289.699 192.356 290.334 192.519 290.903 192.846C291.482 193.163 291.934 193.616 292.261 194.204C292.588 194.783 292.751 195.459 292.751 196.234C292.751 197.009 292.588 197.69 292.261 198.278C291.934 198.857 291.482 199.309 290.903 199.636C290.334 199.953 289.699 200.112 288.999 200.112C288.038 200.112 287.282 199.809 286.731 199.202V202.716H284.547V192.468H286.633V193.336C287.174 192.683 287.963 192.356 288.999 192.356ZM288.621 198.32C289.181 198.32 289.638 198.133 289.993 197.76C290.357 197.377 290.539 196.869 290.539 196.234C290.539 195.599 290.357 195.095 289.993 194.722C289.638 194.339 289.181 194.148 288.621 194.148C288.061 194.148 287.599 194.339 287.235 194.722C286.88 195.095 286.703 195.599 286.703 196.234C286.703 196.869 286.88 197.377 287.235 197.76C287.599 198.133 288.061 198.32 288.621 198.32ZM301.591 196.262C301.591 196.29 301.577 196.486 301.549 196.85H295.851C295.954 197.317 296.196 197.685 296.579 197.956C296.962 198.227 297.438 198.362 298.007 198.362C298.399 198.362 298.744 198.306 299.043 198.194C299.351 198.073 299.636 197.886 299.897 197.634L301.059 198.894C300.35 199.706 299.314 200.112 297.951 200.112C297.102 200.112 296.35 199.949 295.697 199.622C295.044 199.286 294.54 198.824 294.185 198.236C293.83 197.648 293.653 196.981 293.653 196.234C293.653 195.497 293.826 194.834 294.171 194.246C294.526 193.649 295.006 193.187 295.613 192.86C296.229 192.524 296.915 192.356 297.671 192.356C298.408 192.356 299.076 192.515 299.673 192.832C300.27 193.149 300.737 193.607 301.073 194.204C301.418 194.792 301.591 195.478 301.591 196.262ZM297.685 194.008C297.19 194.008 296.775 194.148 296.439 194.428C296.103 194.708 295.898 195.091 295.823 195.576H299.533C299.458 195.1 299.253 194.722 298.917 194.442C298.581 194.153 298.17 194.008 297.685 194.008ZM305.131 193.462C305.392 193.098 305.742 192.823 306.181 192.636C306.629 192.449 307.142 192.356 307.721 192.356V194.372C307.478 194.353 307.315 194.344 307.231 194.344C306.606 194.344 306.116 194.521 305.761 194.876C305.406 195.221 305.229 195.744 305.229 196.444V200H303.045V192.468H305.131V193.462ZM322.181 190.2V200H319.913V195.982H315.461V200H313.193V190.2H315.461V194.064H319.913V190.2H322.181ZM327.93 200.112C327.137 200.112 326.423 199.949 325.788 199.622C325.163 199.286 324.673 198.824 324.318 198.236C323.963 197.648 323.786 196.981 323.786 196.234C323.786 195.487 323.963 194.82 324.318 194.232C324.673 193.644 325.163 193.187 325.788 192.86C326.423 192.524 327.137 192.356 327.93 192.356C328.723 192.356 329.433 192.524 330.058 192.86C330.683 193.187 331.173 193.644 331.528 194.232C331.883 194.82 332.06 195.487 332.06 196.234C332.06 196.981 331.883 197.648 331.528 198.236C331.173 198.824 330.683 199.286 330.058 199.622C329.433 199.949 328.723 200.112 327.93 200.112ZM327.93 198.32C328.49 198.32 328.947 198.133 329.302 197.76C329.666 197.377 329.848 196.869 329.848 196.234C329.848 195.599 329.666 195.095 329.302 194.722C328.947 194.339 328.49 194.148 327.93 194.148C327.37 194.148 326.908 194.339 326.544 194.722C326.18 195.095 325.998 195.599 325.998 196.234C325.998 196.869 326.18 197.377 326.544 197.76C326.908 198.133 327.37 198.32 327.93 198.32ZM337.104 200.112C336.31 200.112 335.596 199.949 334.962 199.622C334.336 199.286 333.846 198.824 333.492 198.236C333.137 197.648 332.96 196.981 332.96 196.234C332.96 195.487 333.137 194.82 333.492 194.232C333.846 193.644 334.336 193.187 334.962 192.86C335.596 192.524 336.31 192.356 337.104 192.356C337.897 192.356 338.606 192.524 339.232 192.86C339.857 193.187 340.347 193.644 340.702 194.232C341.056 194.82 341.234 195.487 341.234 196.234C341.234 196.981 341.056 197.648 340.702 198.236C340.347 198.824 339.857 199.286 339.232 199.622C338.606 199.949 337.897 200.112 337.104 200.112ZM337.104 198.32C337.664 198.32 338.121 198.133 338.476 197.76C338.84 197.377 339.022 196.869 339.022 196.234C339.022 195.599 338.84 195.095 338.476 194.722C338.121 194.339 337.664 194.148 337.104 194.148C336.544 194.148 336.082 194.339 335.718 194.722C335.354 195.095 335.172 195.599 335.172 196.234C335.172 196.869 335.354 197.377 335.718 197.76C336.082 198.133 336.544 198.32 337.104 198.32ZM350.366 189.612V200H348.28V199.132C347.738 199.785 346.954 200.112 345.928 200.112C345.218 200.112 344.574 199.953 343.996 199.636C343.426 199.319 342.978 198.866 342.652 198.278C342.325 197.69 342.162 197.009 342.162 196.234C342.162 195.459 342.325 194.778 342.652 194.19C342.978 193.602 343.426 193.149 343.996 192.832C344.574 192.515 345.218 192.356 345.928 192.356C346.889 192.356 347.64 192.659 348.182 193.266V189.612H350.366ZM346.306 198.32C346.856 198.32 347.314 198.133 347.678 197.76C348.042 197.377 348.224 196.869 348.224 196.234C348.224 195.599 348.042 195.095 347.678 194.722C347.314 194.339 346.856 194.148 346.306 194.148C345.746 194.148 345.284 194.339 344.92 194.722C344.556 195.095 344.374 195.599 344.374 196.234C344.374 196.869 344.556 197.377 344.92 197.76C345.284 198.133 345.746 198.32 346.306 198.32ZM352.387 192.468H354.571V200H352.387V192.468ZM353.479 191.418C353.078 191.418 352.751 191.301 352.499 191.068C352.247 190.835 352.121 190.545 352.121 190.2C352.121 189.855 352.247 189.565 352.499 189.332C352.751 189.099 353.078 188.982 353.479 188.982C353.88 188.982 354.207 189.094 354.459 189.318C354.711 189.542 354.837 189.822 354.837 190.158C354.837 190.522 354.711 190.825 354.459 191.068C354.207 191.301 353.88 191.418 353.479 191.418ZM363.976 196.262C363.976 196.29 363.962 196.486 363.934 196.85H358.236C358.339 197.317 358.581 197.685 358.964 197.956C359.347 198.227 359.823 198.362 360.392 198.362C360.784 198.362 361.129 198.306 361.428 198.194C361.736 198.073 362.021 197.886 362.282 197.634L363.444 198.894C362.735 199.706 361.699 200.112 360.336 200.112C359.487 200.112 358.735 199.949 358.082 199.622C357.429 199.286 356.925 198.824 356.57 198.236C356.215 197.648 356.038 196.981 356.038 196.234C356.038 195.497 356.211 194.834 356.556 194.246C356.911 193.649 357.391 193.187 357.998 192.86C358.614 192.524 359.3 192.356 360.056 192.356C360.793 192.356 361.461 192.515 362.058 192.832C362.655 193.149 363.122 193.607 363.458 194.204C363.803 194.792 363.976 195.478 363.976 196.262ZM360.07 194.008C359.575 194.008 359.16 194.148 358.824 194.428C358.488 194.708 358.283 195.091 358.208 195.576H361.918C361.843 195.1 361.638 194.722 361.302 194.442C360.966 194.153 360.555 194.008 360.07 194.008ZM367.964 200.112C367.339 200.112 366.727 200.037 366.13 199.888C365.533 199.729 365.057 199.533 364.702 199.3L365.43 197.732C365.766 197.947 366.172 198.124 366.648 198.264C367.124 198.395 367.591 198.46 368.048 198.46C368.972 198.46 369.434 198.231 369.434 197.774C369.434 197.559 369.308 197.405 369.056 197.312C368.804 197.219 368.417 197.139 367.894 197.074C367.278 196.981 366.769 196.873 366.368 196.752C365.967 196.631 365.617 196.416 365.318 196.108C365.029 195.8 364.884 195.361 364.884 194.792C364.884 194.316 365.019 193.896 365.29 193.532C365.57 193.159 365.971 192.869 366.494 192.664C367.026 192.459 367.651 192.356 368.37 192.356C368.902 192.356 369.429 192.417 369.952 192.538C370.484 192.65 370.923 192.809 371.268 193.014L370.54 194.568C369.877 194.195 369.154 194.008 368.37 194.008C367.903 194.008 367.553 194.073 367.32 194.204C367.087 194.335 366.97 194.503 366.97 194.708C366.97 194.941 367.096 195.105 367.348 195.198C367.6 195.291 368.001 195.38 368.552 195.464C369.168 195.567 369.672 195.679 370.064 195.8C370.456 195.912 370.797 196.122 371.086 196.43C371.375 196.738 371.52 197.167 371.52 197.718C371.52 198.185 371.38 198.6 371.1 198.964C370.82 199.328 370.409 199.613 369.868 199.818C369.336 200.014 368.701 200.112 367.964 200.112Z" fill="black"/>
<path d="M271.108 219.184V220H266.5V219.184H268.342V213.322C268.342 213.146 268.348 212.968 268.36 212.788L266.83 214.102C266.778 214.146 266.726 214.174 266.674 214.186C266.622 214.194 266.574 214.194 266.53 214.186C266.486 214.178 266.444 214.162 266.404 214.138C266.368 214.114 266.34 214.088 266.32 214.06L265.984 213.598L268.546 211.384H269.416V219.184H271.108ZM276.341 216.898V213.352C276.341 213.248 276.345 213.134 276.353 213.01C276.361 212.886 276.373 212.76 276.389 212.632L273.257 216.898H276.341ZM278.579 216.898V217.51C278.579 217.574 278.559 217.628 278.519 217.672C278.483 217.716 278.425 217.738 278.345 217.738H277.277V220H276.341V217.738H272.525C272.445 217.738 272.375 217.716 272.315 217.672C272.259 217.624 272.223 217.566 272.207 217.498L272.099 216.952L276.281 211.402H277.277V216.898H278.579ZM283.254 213.478C283.254 213.814 283.202 214.116 283.098 214.384C282.994 214.648 282.854 214.872 282.678 215.056C282.506 215.236 282.304 215.374 282.072 215.47C281.844 215.566 281.602 215.614 281.346 215.614C281.078 215.614 280.828 215.566 280.596 215.47C280.364 215.374 280.162 215.236 279.99 215.056C279.822 214.872 279.69 214.648 279.594 214.384C279.498 214.116 279.45 213.814 279.45 213.478C279.45 213.134 279.498 212.828 279.594 212.56C279.69 212.292 279.822 212.066 279.99 211.882C280.162 211.698 280.364 211.558 280.596 211.462C280.828 211.366 281.078 211.318 281.346 211.318C281.618 211.318 281.87 211.366 282.102 211.462C282.334 211.558 282.536 211.698 282.708 211.882C282.88 212.066 283.014 212.292 283.11 212.56C283.206 212.828 283.254 213.134 283.254 213.478ZM282.426 213.478C282.426 213.214 282.398 212.99 282.342 212.806C282.286 212.622 282.208 212.472 282.108 212.356C282.012 212.236 281.898 212.15 281.766 212.098C281.634 212.046 281.494 212.02 281.346 212.02C281.198 212.02 281.06 212.046 280.932 212.098C280.804 212.15 280.692 212.236 280.596 212.356C280.5 212.472 280.424 212.622 280.368 212.806C280.312 212.99 280.284 213.214 280.284 213.478C280.284 213.738 280.312 213.96 280.368 214.144C280.424 214.324 280.5 214.472 280.596 214.588C280.692 214.7 280.804 214.782 280.932 214.834C281.06 214.882 281.198 214.906 281.346 214.906C281.494 214.906 281.634 214.882 281.766 214.834C281.898 214.782 282.012 214.7 282.108 214.588C282.208 214.472 282.286 214.324 282.342 214.144C282.398 213.96 282.426 213.738 282.426 213.478ZM286.296 211.582C286.336 211.534 286.382 211.492 286.434 211.456C286.49 211.42 286.564 211.402 286.656 211.402H287.43L281.142 219.826C281.106 219.878 281.06 219.92 281.004 219.952C280.948 219.984 280.88 220 280.8 220H280.014L286.296 211.582ZM288.012 217.972C288.012 218.308 287.96 218.608 287.856 218.872C287.752 219.136 287.612 219.36 287.436 219.544C287.264 219.724 287.062 219.862 286.83 219.958C286.602 220.054 286.36 220.102 286.104 220.102C285.832 220.102 285.58 220.054 285.348 219.958C285.12 219.862 284.92 219.724 284.748 219.544C284.58 219.36 284.448 219.136 284.352 218.872C284.256 218.608 284.208 218.308 284.208 217.972C284.208 217.628 284.256 217.322 284.352 217.054C284.448 216.782 284.58 216.554 284.748 216.37C284.92 216.186 285.12 216.046 285.348 215.95C285.58 215.854 285.832 215.806 286.104 215.806C286.372 215.806 286.622 215.854 286.854 215.95C287.09 216.046 287.292 216.186 287.46 216.37C287.632 216.554 287.766 216.782 287.862 217.054C287.962 217.322 288.012 217.628 288.012 217.972ZM287.184 217.972C287.184 217.708 287.156 217.484 287.1 217.3C287.044 217.112 286.966 216.96 286.866 216.844C286.77 216.728 286.656 216.644 286.524 216.592C286.392 216.54 286.252 216.514 286.104 216.514C285.956 216.514 285.816 216.54 285.684 216.592C285.556 216.644 285.444 216.728 285.348 216.844C285.252 216.96 285.176 217.112 285.12 217.3C285.068 217.484 285.042 217.708 285.042 217.972C285.042 218.232 285.068 218.452 285.12 218.632C285.176 218.812 285.252 218.96 285.348 219.076C285.444 219.188 285.556 219.27 285.684 219.322C285.816 219.37 285.956 219.394 286.104 219.394C286.252 219.394 286.392 219.37 286.524 219.322C286.656 219.27 286.77 219.188 286.866 219.076C286.966 218.96 287.044 218.812 287.1 218.632C287.156 218.452 287.184 218.232 287.184 217.972Z" fill="#858585"/>
<path d="M44.104 36.776H40.072V34.4H51.052V36.776H47.02V47H44.104V36.776ZM56.0466 47.144C55.0266 47.144 54.1086 46.934 53.2926 46.514C52.4886 46.082 51.8586 45.488 51.4026 44.732C50.9466 43.976 50.7186 43.118 50.7186 42.158C50.7186 41.198 50.9466 40.34 51.4026 39.584C51.8586 38.828 52.4886 38.24 53.2926 37.82C54.1086 37.388 55.0266 37.172 56.0466 37.172C57.0666 37.172 57.9786 37.388 58.7826 37.82C59.5866 38.24 60.2166 38.828 60.6726 39.584C61.1286 40.34 61.3566 41.198 61.3566 42.158C61.3566 43.118 61.1286 43.976 60.6726 44.732C60.2166 45.488 59.5866 46.082 58.7826 46.514C57.9786 46.934 57.0666 47.144 56.0466 47.144ZM56.0466 44.84C56.7666 44.84 57.3546 44.6 57.8106 44.12C58.2786 43.628 58.5126 42.974 58.5126 42.158C58.5126 41.342 58.2786 40.694 57.8106 40.214C57.3546 39.722 56.7666 39.476 56.0466 39.476C55.3266 39.476 54.7326 39.722 54.2646 40.214C53.7966 40.694 53.5626 41.342 53.5626 42.158C53.5626 42.974 53.7966 43.628 54.2646 44.12C54.7326 44.6 55.3266 44.84 56.0466 44.84ZM68.9575 37.172C69.8575 37.172 70.6735 37.382 71.4055 37.802C72.1495 38.21 72.7315 38.792 73.1515 39.548C73.5715 40.292 73.7815 41.162 73.7815 42.158C73.7815 43.154 73.5715 44.03 73.1515 44.786C72.7315 45.53 72.1495 46.112 71.4055 46.532C70.6735 46.94 69.8575 47.144 68.9575 47.144C67.7215 47.144 66.7495 46.754 66.0415 45.974V50.492H63.2335V37.316H65.9155V38.432C66.6115 37.592 67.6255 37.172 68.9575 37.172ZM68.4715 44.84C69.1915 44.84 69.7795 44.6 70.2355 44.12C70.7035 43.628 70.9375 42.974 70.9375 42.158C70.9375 41.342 70.7035 40.694 70.2355 40.214C69.7795 39.722 69.1915 39.476 68.4715 39.476C67.7515 39.476 67.1575 39.722 66.6895 40.214C66.2335 40.694 66.0055 41.342 66.0055 42.158C66.0055 42.974 66.2335 43.628 66.6895 44.12C67.1575 44.6 67.7515 44.84 68.4715 44.84ZM86.4829 37.172C87.3829 37.172 88.1989 37.382 88.9309 37.802C89.6749 38.21 90.2569 38.792 90.6769 39.548C91.0969 40.292 91.3069 41.162 91.3069 42.158C91.3069 43.154 91.0969 44.03 90.6769 44.786C90.2569 45.53 89.6749 46.112 88.9309 46.532C88.1989 46.94 87.3829 47.144 86.4829 47.144C85.2469 47.144 84.2749 46.754 83.5669 45.974V50.492H80.7589V37.316H83.4409V38.432C84.1369 37.592 85.1509 37.172 86.4829 37.172ZM85.9969 44.84C86.7169 44.84 87.3049 44.6 87.7609 44.12C88.2289 43.628 88.4629 42.974 88.4629 42.158C88.4629 41.342 88.2289 40.694 87.7609 40.214C87.3049 39.722 86.7169 39.476 85.9969 39.476C85.2769 39.476 84.6829 39.722 84.2149 40.214C83.7589 40.694 83.5309 41.342 83.5309 42.158C83.5309 42.974 83.7589 43.628 84.2149 44.12C84.6829 44.6 85.2769 44.84 85.9969 44.84ZM95.8686 38.594C96.2046 38.126 96.6546 37.772 97.2186 37.532C97.7946 37.292 98.4546 37.172 99.1986 37.172V39.764C98.8866 39.74 98.6766 39.728 98.5686 39.728C97.7646 39.728 97.1346 39.956 96.6786 40.412C96.2226 40.856 95.9946 41.528 95.9946 42.428V47H93.1866V37.316H95.8686V38.594ZM105.388 47.144C104.368 47.144 103.45 46.934 102.634 46.514C101.83 46.082 101.2 45.488 100.744 44.732C100.288 43.976 100.06 43.118 100.06 42.158C100.06 41.198 100.288 40.34 100.744 39.584C101.2 38.828 101.83 38.24 102.634 37.82C103.45 37.388 104.368 37.172 105.388 37.172C106.408 37.172 107.32 37.388 108.124 37.82C108.928 38.24 109.558 38.828 110.014 39.584C110.47 40.34 110.698 41.198 110.698 42.158C110.698 43.118 110.47 43.976 110.014 44.732C109.558 45.488 108.928 46.082 108.124 46.514C107.32 46.934 106.408 47.144 105.388 47.144ZM105.388 44.84C106.108 44.84 106.696 44.6 107.152 44.12C107.62 43.628 107.854 42.974 107.854 42.158C107.854 41.342 107.62 40.694 107.152 40.214C106.696 39.722 106.108 39.476 105.388 39.476C104.668 39.476 104.074 39.722 103.606 40.214C103.138 40.694 102.904 41.342 102.904 42.158C102.904 42.974 103.138 43.628 103.606 44.12C104.074 44.6 104.668 44.84 105.388 44.84ZM122.439 33.644V47H119.757V45.884C119.061 46.724 118.053 47.144 116.733 47.144C115.821 47.144 114.993 46.94 114.249 46.532C113.517 46.124 112.941 45.542 112.521 44.786C112.101 44.03 111.891 43.154 111.891 42.158C111.891 41.162 112.101 40.286 112.521 39.53C112.941 38.774 113.517 38.192 114.249 37.784C114.993 37.376 115.821 37.172 116.733 37.172C117.969 37.172 118.935 37.562 119.631 38.342V33.644H122.439ZM117.219 44.84C117.927 44.84 118.515 44.6 118.983 44.12C119.451 43.628 119.685 42.974 119.685 42.158C119.685 41.342 119.451 40.694 118.983 40.214C118.515 39.722 117.927 39.476 117.219 39.476C116.499 39.476 115.905 39.722 115.437 40.214C114.969 40.694 114.735 41.342 114.735 42.158C114.735 42.974 114.969 43.628 115.437 44.12C115.905 44.6 116.499 44.84 117.219 44.84ZM134.794 37.316V47H132.13V45.848C131.758 46.268 131.314 46.592 130.798 46.82C130.282 47.036 129.724 47.144 129.124 47.144C127.852 47.144 126.844 46.778 126.1 46.046C125.356 45.314 124.984 44.228 124.984 42.788V37.316H127.792V42.374C127.792 43.934 128.446 44.714 129.754 44.714C130.426 44.714 130.966 44.498 131.374 44.066C131.782 43.622 131.986 42.968 131.986 42.104V37.316H134.794ZM142.076 47.144C141.044 47.144 140.114 46.934 139.286 46.514C138.47 46.082 137.828 45.488 137.36 44.732C136.904 43.976 136.676 43.118 136.676 42.158C136.676 41.198 136.904 40.34 137.36 39.584C137.828 38.828 138.47 38.24 139.286 37.82C140.114 37.388 141.044 37.172 142.076 37.172C143.096 37.172 143.984 37.388 144.74 37.82C145.508 38.24 146.066 38.846 146.414 39.638L144.236 40.808C143.732 39.92 143.006 39.476 142.058 39.476C141.326 39.476 140.72 39.716 140.24 40.196C139.76 40.676 139.52 41.33 139.52 42.158C139.52 42.986 139.76 43.64 140.24 44.12C140.72 44.6 141.326 44.84 142.058 44.84C143.018 44.84 143.744 44.396 144.236 43.508L146.414 44.696C146.066 45.464 145.508 46.064 144.74 46.496C143.984 46.928 143.096 47.144 142.076 47.144ZM154.417 46.532C154.141 46.736 153.799 46.892 153.391 47C152.995 47.096 152.575 47.144 152.131 47.144C150.979 47.144 150.085 46.85 149.449 46.262C148.825 45.674 148.513 44.81 148.513 43.67V39.692H147.019V37.532H148.513V35.174H151.321V37.532H153.733V39.692H151.321V43.634C151.321 44.042 151.423 44.36 151.627 44.588C151.843 44.804 152.143 44.912 152.527 44.912C152.971 44.912 153.349 44.792 153.661 44.552L154.417 46.532ZM159.251 47.144C158.447 47.144 157.661 47.048 156.893 46.856C156.125 46.652 155.513 46.4 155.057 46.1L155.993 44.084C156.425 44.36 156.947 44.588 157.559 44.768C158.171 44.936 158.771 45.02 159.359 45.02C160.547 45.02 161.141 44.726 161.141 44.138C161.141 43.862 160.979 43.664 160.655 43.544C160.331 43.424 159.833 43.322 159.161 43.238C158.369 43.118 157.715 42.98 157.199 42.824C156.683 42.668 156.233 42.392 155.849 41.996C155.477 41.6 155.291 41.036 155.291 40.304C155.291 39.692 155.465 39.152 155.813 38.684C156.173 38.204 156.689 37.832 157.361 37.568C158.045 37.304 158.849 37.172 159.773 37.172C160.457 37.172 161.135 37.25 161.807 37.406C162.491 37.55 163.055 37.754 163.499 38.018L162.563 40.016C161.711 39.536 160.781 39.296 159.773 39.296C159.173 39.296 158.723 39.38 158.423 39.548C158.123 39.716 157.973 39.932 157.973 40.196C157.973 40.496 158.135 40.706 158.459 40.826C158.783 40.946 159.299 41.06 160.007 41.168C160.799 41.3 161.447 41.444 161.951 41.6C162.455 41.744 162.893 42.014 163.265 42.41C163.637 42.806 163.823 43.358 163.823 44.066C163.823 44.666 163.643 45.2 163.283 45.668C162.923 46.136 162.395 46.502 161.699 46.766C161.015 47.018 160.199 47.144 159.251 47.144Z" fill="black"/>
<mask id="mask0_0_263" style="mask-type:alpha" maskUnits="userSpaceOnUse" x="60" y="82" width="134" height="134">
<circle cx="127" cy="149" r="67" transform="rotate(180 127 149)" fill="#C4C4C4"/>
</mask>
<g mask="url(#mask0_0_263)">
<rect x="200.634" y="221.307" width="145.941" height="145.941" transform="rotate(180 200.634 221.307)" fill="#98D89E"/>
<path d="M141.594 78.6832L127.663 148.337L200.634 119.694V75.3663L141.594 78.6832Z" fill="#EE8484"/>
<path d="M200.634 221.307V119.812L128.327 147.673V221.307H200.634Z" fill="#F7DC7D"/>
</g>
</svg>
